# Blender v2.78 (sub 0) OBJ File: 'Cube_portal.blend1'
# www.blender.org
mtllib Cube_portal.mtl
o Cube_Portal_Cube
v -0.000000 -0.425726 -1.199502
v 0.000000 -1.272811 0.001545
v -1.039246 -0.423542 0.600524
v -1.039246 0.423542 -0.600524
v 1.039247 0.423542 -0.600523
v 1.039246 -0.423542 0.600524
v -0.000000 0.425727 1.199502
v 0.000000 1.272811 -0.001545
vt 0.0001 0.5000
vt 0.0001 0.2500
vt 0.2500 0.2500
vt 0.2500 0.5000
vt 0.7500 0.5000
vt 0.5000 0.5000
vt 0.5000 0.2500
vt 0.7500 0.2500
vt 0.2500 0.7500
vt 0.5000 0.7500
vt 0.5000 0.9999
vt 0.2500 0.9999
vt 0.2500 0.0001
vt 0.5000 0.0001
vn -0.7071 -0.5778 -0.4075
vn 0.7071 0.5778 0.4075
vn 0.7071 -0.5778 -0.4075
vn -0.0000 -0.5764 0.8172
vn -0.7071 0.5778 0.4075
vn 0.0000 0.5764 -0.8172
usemtl Material
s off
f 1/1/1 2/2/1 3/3/1 4/4/1
f 5/5/2 8/6/2 7/7/2 6/8/2
f 1/9/3 5/10/3 6/11/3 2/12/3
f 2/13/4 6/14/4 7/7/4 3/3/4
f 3/3/5 7/7/5 8/6/5 4/4/5
f 5/10/6 1/9/6 4/4/6 8/6/6
