# Blender v2.78 (sub 0) OBJ File: ''
# www.blender.org
mtllib NOGRAVITYCUBE.mtl
o Cube
v 0.000000 0.355517 0.000000
v 0.640631 0.996149 0.640632
v -0.640632 0.996149 0.640632
v -0.640631 0.996149 -0.640632
v 0.640632 0.996149 -0.640631
v 0.355517 -0.000000 0.000000
v 0.996149 0.640631 0.640632
v 0.996149 -0.640632 0.640632
v 0.996149 0.640631 -0.640632
v 0.996149 -0.640632 -0.640631
v -0.000000 -0.000000 -0.355517
v 0.640632 -0.640631 -0.996149
v -0.640632 0.640631 -0.996149
v -0.640631 -0.640632 -0.996149
v 0.640632 0.640631 -0.996149
v -0.355517 -0.000000 0.000000
v -0.996149 0.640631 0.640632
v -0.996149 -0.640632 0.640631
v -0.996149 0.640631 -0.640632
v -0.996149 -0.640631 -0.640632
v 0.000000 -0.000000 0.355517
v 0.640631 -0.640632 0.996148
v -0.640632 0.640631 0.996149
v 0.640632 0.640631 0.996149
v -0.640632 -0.640631 0.996149
v 0.000000 -0.355517 -0.000000
v 0.640631 -0.996148 -0.640632
v -0.640631 -0.996149 0.640631
v 0.640632 -0.996149 0.640631
v -0.640632 -0.996149 -0.640631
vt 0.2304 0.0000
vt 0.1152 0.1133
vt 0.2304 0.2265
vt 0.0000 0.0000
vt 0.0000 0.4531
vt 0.2304 0.4531
vt 0.2304 0.2265
vt 0.0000 0.2265
vt 0.0000 0.2265
vt 0.2781 0.6796
vt 0.1629 0.7929
vt 0.2781 0.9062
vt 0.8848 0.4531
vt 0.7696 0.5664
vt 0.8848 0.6796
vt 0.6237 0.4531
vt 0.6237 0.2265
vt 0.4608 0.2265
vt 0.4608 0.4531
vt 1.0000 0.4531
vt 0.8848 0.5664
vt 1.0000 0.6796
vt 0.9216 0.0000
vt 0.8064 0.1133
vt 0.9216 0.2265
vt 0.8064 0.0000
vt 0.6912 0.1133
vt 0.8064 0.2265
vt 0.3933 0.8095
vt 0.5563 0.8095
vt 0.5563 0.6493
vt 0.2304 0.4531
vt 0.2304 0.6796
vt 0.3933 0.6796
vt 0.3933 0.4531
vt 0.3933 0.9696
vt 0.5563 0.9696
vt 0.5563 0.8095
vt 0.0000 0.8398
vt 0.1629 0.8398
vt 0.1629 0.6796
vt 0.3933 0.5839
vt 0.5815 0.6493
vt 0.5815 0.4531
vt 0.7696 0.6493
vt 0.6544 0.7625
vt 0.7696 0.8758
vt 0.4608 0.2265
vt 0.6912 0.2265
vt 0.6912 0.0000
vt 0.4608 0.0000
vt 0.3933 0.6796
vt 0.2781 0.7929
vt 0.3933 0.9062
vt 0.9325 0.8398
vt 0.9325 0.6796
vt 0.7696 0.6796
vt 0.1629 1.0000
vt 0.1629 0.8398
vt 0.0000 0.8398
vt 0.8542 0.2265
vt 0.7389 0.3398
vt 0.8542 0.4531
vt 0.2304 0.2265
vt 0.4608 0.2265
vt 0.4608 0.0000
vt 0.2304 0.0000
vt 0.9694 0.2265
vt 0.8542 0.3398
vt 0.9694 0.4531
vt 0.5815 0.5839
vt 0.7696 0.6493
vt 0.7696 0.4531
vt 0.4608 0.4531
vt 0.3456 0.3398
vt 0.2304 0.4531
vt 0.7389 0.2265
vt 0.6237 0.3398
vt 0.7389 0.4531
vt 0.2304 0.4531
vt 0.0000 0.4531
vt 0.0000 0.6796
vt 0.2304 0.6796
vt 0.2304 0.2265
vt 0.4608 0.2265
vn -0.0000 -0.7071 0.7071
vn -0.7071 -0.7071 -0.0000
vn 0.0000 1.0000 -0.0000
vn 0.7071 -0.7071 0.0000
vn 0.0000 -0.7071 -0.7071
vn -0.7071 0.0000 0.7071
vn -0.7071 0.7071 -0.0000
vn 1.0000 -0.0000 0.0000
vn -0.7071 -0.0000 -0.7071
vn 0.7071 0.0000 0.7071
vn -0.0000 0.7071 0.7071
vn -0.0000 -0.0000 -1.0000
vn 0.7071 0.0000 -0.7071
vn 0.7071 0.7071 0.0000
vn -1.0000 -0.0000 0.0000
vn 0.0000 0.7071 -0.7071
vn 0.0000 -0.0000 1.0000
vn 0.0000 -1.0000 -0.0000
usemtl Material
s off
f 3/1/1 1/2/1 2/3/1
f 4/4/2 1/2/2 3/1/2
f 3/5/3 2/6/3 5/7/3 4/8/3
f 2/3/4 1/2/4 5/9/4
f 5/9/5 1/2/5 4/4/5
f 7/10/6 6/11/6 8/12/6
f 9/13/7 6/14/7 7/15/7
f 7/16/8 8/17/8 10/18/8 9/19/8
f 8/20/2 6/21/2 10/22/2
f 10/23/9 6/24/9 9/25/9
f 15/26/10 11/27/10 12/28/10
f 13/29/11 11/30/11 15/31/11
f 15/32/12 12/33/12 14/34/12 13/35/12
f 12/36/1 11/37/1 14/38/1
f 14/39/6 11/40/6 13/41/6
f 19/42/13 16/43/13 20/44/13
f 17/45/14 16/46/14 19/47/14
f 19/48/15 20/49/15 18/50/15 17/51/15
f 20/52/4 16/53/4 18/54/4
f 18/55/10 16/56/10 17/57/10
f 23/58/9 21/59/9 25/60/9
f 24/61/16 21/62/16 23/63/16
f 23/64/17 25/65/17 22/66/17 24/67/17
f 25/68/5 21/69/5 22/70/5
f 22/71/13 21/72/13 24/73/13
f 28/74/7 26/75/7 30/76/7
f 29/77/11 26/78/11 28/79/11
f 28/80/18 30/81/18 27/82/18 29/83/18
f 30/76/16 26/75/16 27/84/16
f 27/84/14 26/75/14 29/85/14
