# Blender v2.78 (sub 0) OBJ File: 'Barril.blend'
# www.blender.org
mtllib Barril.mtl
o Cube_Cube.003
v -0.375919 0.015734 0.143023
v -0.143023 1.547831 0.375919
v -0.143023 0.015734 0.375919
v -0.448709 1.547831 0.215813
v -0.448709 0.015734 0.215813
v -0.215814 1.547831 0.448709
v -0.215814 0.015734 0.448709
v -0.170787 0.318667 0.448892
v -0.190240 0.767541 0.500020
v -0.170787 1.216414 0.448892
v -0.448892 0.318667 0.170787
v -0.500020 0.767541 0.190239
v -0.448892 1.216414 0.170787
v -0.535812 0.318667 0.257707
v -0.596841 0.767541 0.287059
v -0.535812 1.216414 0.257707
v -0.257707 1.216414 0.535812
v -0.287060 0.767541 0.596840
v -0.257707 0.318667 0.535812
v -0.375919 1.547831 0.143023
v -0.366947 0.015734 -0.164682
v -0.366947 1.519347 0.164682
v -0.366947 0.015734 0.164682
v -0.469888 1.519347 -0.164682
v -0.469888 0.015734 -0.164682
v -0.469888 1.519347 0.164682
v -0.469888 0.015734 0.164682
v -0.438179 0.318667 0.196650
v -0.488087 0.767541 0.219048
v -0.438179 1.216414 0.196650
v -0.438179 0.318667 -0.196650
v -0.488087 0.767541 -0.219048
v -0.438179 1.216414 -0.196650
v -0.561103 0.318667 -0.196650
v -0.625012 0.767541 -0.219048
v -0.561103 1.216414 -0.196650
v -0.561103 1.216414 0.196650
v -0.625012 0.767541 0.219048
v -0.561103 0.318667 0.196650
v -0.366947 1.519347 -0.164682
v 0.164682 0.015734 -0.366947
v -0.164682 1.519347 -0.366947
v -0.164682 0.015734 -0.366947
v 0.164682 1.519347 -0.469888
v 0.164682 0.015734 -0.469888
v -0.164682 1.519347 -0.469888
v -0.164682 0.015734 -0.469888
v -0.196650 0.318667 -0.438179
v -0.219048 0.767541 -0.488087
v -0.196650 1.216414 -0.438179
v 0.196650 0.318667 -0.438179
v 0.219048 0.767541 -0.488087
v 0.196650 1.216414 -0.438179
v 0.196650 0.318667 -0.561103
v 0.219048 0.767541 -0.625012
v 0.196650 1.216414 -0.561103
v -0.196650 1.216414 -0.561103
v -0.219048 0.767541 -0.625012
v -0.196650 0.318667 -0.561103
v 0.164682 1.519347 -0.366947
v -0.143023 0.015734 -0.375919
v -0.375919 1.497985 -0.143023
v -0.375919 0.015734 -0.143023
v -0.215813 1.497985 -0.448709
v -0.215813 0.015734 -0.448709
v -0.448709 1.497985 -0.215813
v -0.448709 0.015734 -0.215813
v -0.448892 0.318667 -0.170787
v -0.500020 0.767541 -0.190239
v -0.448892 1.216414 -0.170787
v -0.170787 0.318667 -0.448892
v -0.190239 0.767541 -0.500020
v -0.170787 1.216414 -0.448892
v -0.257707 0.318667 -0.535812
v -0.287060 0.767541 -0.596840
v -0.257707 1.216414 -0.535812
v -0.535812 1.216414 -0.257707
v -0.596840 0.767541 -0.287060
v -0.535812 0.318667 -0.257707
v -0.143023 1.497985 -0.375919
v 0.143023 0.015734 0.375919
v 0.375919 1.499765 0.143023
v 0.375919 0.015734 0.143023
v 0.215813 1.499765 0.448709
v 0.215813 0.015734 0.448709
v 0.448709 1.499765 0.215813
v 0.448709 0.015734 0.215813
v 0.448892 0.318667 0.170787
v 0.500020 0.767541 0.190240
v 0.448892 1.216414 0.170787
v 0.170787 0.318667 0.448892
v 0.190239 0.767541 0.500020
v 0.170787 1.216414 0.448892
v 0.257707 0.318667 0.535812
v 0.287060 0.767541 0.596841
v 0.257707 1.216414 0.535812
v 0.535812 1.216414 0.257707
v 0.596840 0.767541 0.287060
v 0.535812 0.318667 0.257707
v 0.143023 1.499765 0.375919
v -0.164682 0.015734 0.366947
v 0.164682 1.519347 0.366947
v 0.164682 0.015734 0.366947
v -0.164682 1.519347 0.469888
v -0.164682 0.015734 0.469888
v 0.164682 1.519347 0.469888
v 0.164682 0.015734 0.469888
v 0.196650 0.318667 0.438179
v 0.219048 0.767541 0.488087
v 0.196650 1.216414 0.438179
v -0.196650 0.318667 0.438179
v -0.219048 0.767541 0.488087
v -0.196650 1.216414 0.438179
v -0.196650 0.318667 0.561103
v -0.219048 0.767541 0.625012
v -0.196650 1.216414 0.561103
v 0.196650 1.216414 0.561103
v 0.219048 0.767541 0.625012
v 0.196650 0.318667 0.561103
v -0.164682 1.519347 0.366947
v 0.366947 0.015734 0.164682
v 0.366947 1.519347 -0.164682
v 0.366947 0.015734 -0.164682
v 0.469888 1.519347 0.164682
v 0.469888 0.015734 0.164682
v 0.469888 1.519347 -0.164682
v 0.469888 0.015734 -0.164682
v 0.438179 0.318667 -0.196650
v 0.488087 0.767541 -0.219048
v 0.438179 1.216414 -0.196650
v 0.438179 0.318667 0.196650
v 0.488087 0.767541 0.219048
v 0.438179 1.216414 0.196650
v 0.561103 0.318667 0.196650
v 0.625012 0.767541 0.219048
v 0.561103 1.216414 0.196650
v 0.561103 1.216414 -0.196650
v 0.625012 0.767541 -0.219048
v 0.561103 0.318667 -0.196650
v 0.366947 1.519347 0.164682
v 0.375919 0.015734 -0.143023
v 0.143023 1.535369 -0.375919
v 0.143023 0.015734 -0.375919
v 0.448709 1.535369 -0.215813
v 0.448709 0.015734 -0.215813
v 0.215813 1.535369 -0.448709
v 0.215813 0.015734 -0.448709
v 0.170787 0.318667 -0.448892
v 0.190240 0.767541 -0.500020
v 0.170787 1.216414 -0.448892
v 0.448892 0.318667 -0.170787
v 0.500020 0.767541 -0.190240
v 0.448892 1.216414 -0.170787
v 0.535812 0.318667 -0.257707
v 0.596841 0.767541 -0.287060
v 0.535812 1.216414 -0.257707
v 0.257707 1.216414 -0.535812
v 0.287060 0.767541 -0.596841
v 0.257707 0.318667 -0.535812
v 0.375919 1.535369 -0.143023
v 0.245064 1.101644 -0.576835
v -0.234597 1.101644 -0.581170
v -0.576835 1.101644 -0.245064
v -0.581170 1.101644 0.234597
v -0.245064 1.101644 0.576835
v 0.234598 1.101644 0.581170
v 0.576835 1.101644 0.245064
v 0.581170 1.101644 -0.234597
v 0.245064 1.177772 -0.576835
v -0.234597 1.177772 -0.581170
v -0.576835 1.177772 -0.245064
v -0.581170 1.177772 0.234597
v -0.245064 1.177772 0.576835
v 0.234598 1.177772 0.581170
v 0.576835 1.177772 0.245064
v 0.581170 1.177772 -0.234597
v 0.233398 1.103456 -0.549374
v -0.223429 1.103456 -0.553503
v -0.549374 1.103456 -0.233398
v -0.553503 1.103456 0.223429
v -0.233398 1.103456 0.549374
v 0.223429 1.103456 0.553503
v 0.549374 1.103456 0.233398
v 0.553503 1.103456 -0.223429
v 0.233398 1.175960 -0.549374
v -0.223429 1.175960 -0.553503
v -0.549374 1.175960 -0.233398
v -0.553503 1.175960 0.223429
v -0.233398 1.175960 0.549374
v 0.223429 1.175960 0.553503
v 0.549374 1.175960 0.233398
v 0.553503 1.175960 -0.223429
v 0.245064 0.353869 -0.576835
v -0.234597 0.353869 -0.581170
v -0.576835 0.353869 -0.245064
v -0.581170 0.353869 0.234597
v -0.245064 0.353869 0.576835
v 0.234598 0.353869 0.581170
v 0.576835 0.353869 0.245064
v 0.581170 0.353869 -0.234597
v 0.245064 0.429997 -0.576835
v -0.234597 0.429997 -0.581170
v -0.576835 0.429997 -0.245064
v -0.581170 0.429997 0.234597
v -0.245064 0.429997 0.576835
v 0.234598 0.429997 0.581170
v 0.576835 0.429997 0.245064
v 0.581170 0.429997 -0.234597
v 0.233398 0.355681 -0.549374
v -0.223429 0.355681 -0.553503
v -0.549374 0.355681 -0.233398
v -0.553503 0.355681 0.223429
v -0.233398 0.355681 0.549374
v 0.223429 0.355681 0.553503
v 0.549374 0.355681 0.233398
v 0.553503 0.355681 -0.223429
v 0.233398 0.428185 -0.549374
v -0.223429 0.428185 -0.553503
v -0.549374 0.428185 -0.233398
v -0.553503 0.428185 0.223429
v -0.233398 0.428185 0.549374
v 0.223429 0.428185 0.553503
v 0.549374 0.428185 0.233398
v 0.553503 0.428185 -0.223429
v -0.445047 1.424969 0.023288
v -0.443442 1.493011 0.018053
v -0.357086 1.400824 -0.263516
v -0.355480 1.468866 -0.268752
v 0.355985 1.424969 0.268961
v 0.357591 1.493011 0.263725
v 0.443946 1.400824 -0.017844
v 0.445552 1.468866 -0.023079
v -0.336203 1.402382 -0.262782
v -0.338248 1.466980 -0.256113
v -0.072290 1.426854 -0.418893
v -0.074335 1.491453 -0.412224
v 0.426243 1.402382 -0.028944
v 0.424197 1.466980 -0.022275
v 0.295233 1.426854 -0.306176
v 0.293188 1.491453 -0.299507
v -0.293752 1.405102 0.303202
v -0.295330 1.469852 0.308347
v -0.424605 1.423982 0.025459
v -0.426183 1.488733 0.030604
v 0.073771 1.405102 0.415919
v 0.072193 1.469852 0.421064
v 0.337841 1.423982 0.259297
v 0.336263 1.488733 0.264442
vn 0.0000 1.0000 -0.0000
vn 0.6913 -0.2101 -0.6913
vn -0.7038 0.0960 -0.7038
vn -0.7000 0.1410 0.7000
vn 0.7038 0.0960 0.7038
vn -0.6818 0.2654 0.6818
vn -0.7062 -0.0498 -0.7062
vn 0.7062 0.0498 0.7062
vn -0.7062 0.0498 -0.7062
vn -0.7032 -0.1049 -0.7032
vn 0.0000 -1.0000 -0.0000
vn 0.7032 -0.1049 0.7032
vn -0.7000 -0.1410 0.7000
vn 0.7062 -0.0498 0.7062
vn -0.6771 -0.2883 0.6771
vn 0.9735 -0.2289 0.0000
vn 0.0000 0.1049 -0.9945
vn -0.9900 0.1410 -0.0000
vn -0.0000 0.1049 0.9945
vn -0.9575 0.2883 -0.0000
vn 0.0000 -0.0498 -0.9988
vn -0.0000 0.0498 0.9988
vn 0.0000 0.0498 -0.9988
vn 0.0000 -0.1049 -0.9945
vn -0.0000 -0.1049 0.9945
vn -0.9900 -0.1410 -0.0000
vn -0.0000 -0.0498 0.9988
vn -0.9575 -0.2883 -0.0000
vn -0.0000 -0.2289 0.9735
vn 0.9945 0.1049 0.0000
vn 0.0000 0.1410 -0.9900
vn -0.9945 0.1049 -0.0000
vn 0.0000 0.2883 -0.9575
vn 0.9988 -0.0498 0.0000
vn -0.9988 0.0498 -0.0000
vn 0.9988 0.0498 0.0000
vn 0.9945 -0.1049 0.0000
vn -0.9945 -0.1049 -0.0000
vn 0.0000 -0.1410 -0.9900
vn -0.9988 -0.0498 -0.0000
vn 0.0000 -0.2883 -0.9575
vn 0.6855 -0.2453 0.6855
vn 0.7026 0.1128 -0.7026
vn -0.7000 0.1410 -0.7000
vn -0.7026 0.1128 0.7026
vn -0.6727 0.3082 -0.6727
vn 0.7062 -0.0498 -0.7062
vn -0.7062 0.0498 0.7062
vn 0.7062 0.0498 -0.7062
vn 0.7032 -0.1049 -0.7032
vn -0.7032 -0.1049 0.7032
vn -0.7000 -0.1410 -0.7000
vn -0.7062 -0.0498 0.7062
vn -0.6771 -0.2883 -0.6771
vn -0.6858 -0.2438 -0.6858
vn -0.7026 0.1121 0.7026
vn 0.7000 0.1410 0.7000
vn 0.7026 0.1121 -0.7026
vn 0.6731 0.3064 0.6731
vn 0.7000 -0.1410 0.7000
vn 0.6771 -0.2883 0.6771
vn -0.0000 -0.2289 -0.9735
vn 0.0000 0.1410 0.9900
vn 0.0000 0.2883 0.9575
vn 0.0000 -0.1410 0.9900
vn 0.0000 -0.2883 0.9575
vn -0.9735 -0.2289 0.0000
vn 0.9900 0.1410 0.0000
vn 0.9575 0.2883 0.0000
vn 0.9900 -0.1410 0.0000
vn 0.9575 -0.2883 0.0000
vn -0.6901 -0.2180 0.6901
vn 0.7036 0.0997 0.7036
vn 0.7000 0.1410 -0.7000
vn -0.7036 0.0997 -0.7036
vn 0.6799 0.2750 -0.6799
vn 0.7000 -0.1410 -0.7000
vn 0.6771 -0.2883 -0.6771
vn -0.9560 0.0000 -0.2932
vn 0.2923 -0.0802 -0.9530
vn 0.9560 0.0000 0.2932
vn -0.2923 0.0802 0.9530
vn 0.0235 0.9968 -0.0767
vn -0.5127 0.0721 -0.8555
vn 0.2915 0.1074 -0.9505
vn 0.9042 0.0721 -0.4209
vn -0.2915 -0.1074 0.9505
vn -0.0315 0.9942 0.1026
vn -0.9047 -0.0556 0.4224
vn 0.2922 0.0828 -0.9528
vn 0.5123 -0.0556 0.8570
vn -0.2922 -0.0828 0.9528
vn -0.0243 0.9966 0.0792
vn 0.7007 0.0000 0.7135
vn -0.7135 0.0000 0.7007
vn -0.7007 0.0000 -0.7135
vn 1.0000 0.0000 0.0090
vn -0.0090 0.0000 1.0000
vn -1.0000 0.0000 -0.0090
vn 0.0090 0.0000 -1.0000
vn 0.7135 0.0000 -0.7007
vn 0.0460 0.9978 0.0468
vn 0.0656 -0.9978 0.0006
vn 0.0656 0.9978 0.0006
vn 0.0468 -0.9978 -0.0460
vn 0.0468 0.9978 -0.0460
vn 0.0006 -0.9978 -0.0656
vn 0.0006 0.9978 -0.0656
vn -0.0460 -0.9978 -0.0468
vn -0.0460 0.9978 -0.0468
vn -0.0656 -0.9978 -0.0006
vn -0.0656 0.9978 -0.0006
vn -0.0468 -0.9978 0.0460
vn -0.0006 -0.9978 0.0656
vn -0.0468 0.9978 0.0460
vn -0.0006 0.9978 0.0656
vn 0.0460 -0.9978 0.0468
usemtl Material.001
s off
f 4//1 6//1 2//1 20//1
f 13//2 20//2 2//2 10//2
f 16//3 4//3 20//3 13//3
f 18//4 17//4 16//4 15//4
f 10//5 2//5 6//5 17//5
f 17//6 6//6 4//6 16//6
f 14//7 15//7 12//7 11//7
f 9//8 10//8 17//8 18//8
f 15//9 16//9 13//9 12//9
f 5//10 14//10 11//10 1//10
f 1//11 3//11 7//11 5//11
f 3//12 8//12 19//12 7//12
f 19//13 18//13 15//13 14//13
f 8//14 9//14 18//14 19//14
f 14//15 5//15 7//15 19//15
f 24//1 26//1 22//1 40//1
f 33//16 40//16 22//16 30//16
f 36//17 24//17 40//17 33//17
f 38//18 37//18 36//18 35//18
f 30//19 22//19 26//19 37//19
f 37//20 26//20 24//20 36//20
f 34//21 35//21 32//21 31//21
f 29//22 30//22 37//22 38//22
f 35//23 36//23 33//23 32//23
f 25//24 34//24 31//24 21//24
f 21//11 23//11 27//11 25//11
f 23//25 28//25 39//25 27//25
f 39//26 38//26 35//26 34//26
f 28//27 29//27 38//27 39//27
f 34//28 25//28 27//28 39//28
f 44//1 46//1 42//1 60//1
f 53//29 60//29 42//29 50//29
f 56//30 44//30 60//30 53//30
f 58//31 57//31 56//31 55//31
f 50//32 42//32 46//32 57//32
f 57//33 46//33 44//33 56//33
f 54//34 55//34 52//34 51//34
f 49//35 50//35 57//35 58//35
f 55//36 56//36 53//36 52//36
f 45//37 54//37 51//37 41//37
f 41//11 43//11 47//11 45//11
f 43//38 48//38 59//38 47//38
f 59//39 58//39 55//39 54//39
f 48//40 49//40 58//40 59//40
f 54//41 45//41 47//41 59//41
f 64//1 66//1 62//1 80//1
f 73//42 80//42 62//42 70//42
f 76//43 64//43 80//43 73//43
f 78//44 77//44 76//44 75//44
f 70//45 62//45 66//45 77//45
f 77//46 66//46 64//46 76//46
f 74//47 75//47 72//47 71//47
f 69//48 70//48 77//48 78//48
f 75//49 76//49 73//49 72//49
f 65//50 74//50 71//50 61//50
f 61//11 63//11 67//11 65//11
f 63//51 68//51 79//51 67//51
f 79//52 78//52 75//52 74//52
f 68//53 69//53 78//53 79//53
f 74//54 65//54 67//54 79//54
f 84//1 86//1 82//1 100//1
f 93//55 100//55 82//55 90//55
f 96//56 84//56 100//56 93//56
f 98//57 97//57 96//57 95//57
f 90//58 82//58 86//58 97//58
f 97//59 86//59 84//59 96//59
f 94//53 95//53 92//53 91//53
f 89//49 90//49 97//49 98//49
f 95//48 96//48 93//48 92//48
f 85//51 94//51 91//51 81//51
f 81//11 83//11 87//11 85//11
f 83//50 88//50 99//50 87//50
f 99//60 98//60 95//60 94//60
f 88//47 89//47 98//47 99//47
f 94//61 85//61 87//61 99//61
f 104//1 106//1 102//1 120//1
f 113//62 120//62 102//62 110//62
f 116//32 104//32 120//32 113//32
f 118//63 117//63 116//63 115//63
f 110//30 102//30 106//30 117//30
f 117//64 106//64 104//64 116//64
f 114//40 115//40 112//40 111//40
f 109//36 110//36 117//36 118//36
f 115//35 116//35 113//35 112//35
f 105//38 114//38 111//38 101//38
f 101//11 103//11 107//11 105//11
f 103//37 108//37 119//37 107//37
f 119//65 118//65 115//65 114//65
f 108//34 109//34 118//34 119//34
f 114//66 105//66 107//66 119//66
f 124//1 126//1 122//1 140//1
f 133//67 140//67 122//67 130//67
f 136//19 124//19 140//19 133//19
f 138//68 137//68 136//68 135//68
f 130//17 122//17 126//17 137//17
f 137//69 126//69 124//69 136//69
f 134//27 135//27 132//27 131//27
f 129//23 130//23 137//23 138//23
f 135//22 136//22 133//22 132//22
f 125//25 134//25 131//25 121//25
f 121//11 123//11 127//11 125//11
f 123//24 128//24 139//24 127//24
f 139//70 138//70 135//70 134//70
f 128//21 129//21 138//21 139//21
f 134//71 125//71 127//71 139//71
f 144//1 146//1 142//1 160//1
f 153//72 160//72 142//72 150//72
f 156//73 144//73 160//73 153//73
f 158//74 157//74 156//74 155//74
f 150//75 142//75 146//75 157//75
f 157//76 146//76 144//76 156//76
f 154//14 155//14 152//14 151//14
f 149//9 150//9 157//9 158//9
f 155//8 156//8 153//8 152//8
f 145//12 154//12 151//12 141//12
f 141//11 143//11 147//11 145//11
f 143//10 148//10 159//10 147//10
f 159//77 158//77 155//77 154//77
f 148//7 149//7 158//7 159//7
f 154//78 145//78 147//78 159//78
f 225//79 226//79 228//79 227//79
f 227//80 228//80 232//80 231//80
f 231//81 232//81 230//81 229//81
f 229//82 230//82 226//82 225//82
f 232//83 228//83 226//83 230//83
f 233//84 234//84 236//84 235//84
f 235//85 236//85 240//85 239//85
f 239//86 240//86 238//86 237//86
f 237//87 238//87 234//87 233//87
f 240//88 236//88 234//88 238//88
f 241//89 242//89 244//89 243//89
f 243//90 244//90 248//90 247//90
f 247//91 248//91 246//91 245//91
f 245//92 246//92 242//92 241//92
f 248//93 244//93 242//93 246//93
usemtl Material.002
f 167//94 175//94 174//94 166//94
f 165//95 173//95 172//95 164//95
f 163//96 171//96 170//96 162//96
f 168//97 176//97 175//97 167//97
f 166//98 174//98 173//98 165//98
f 164//99 172//99 171//99 163//99
f 162//100 170//100 169//100 161//100
f 161//101 169//101 176//101 168//101
f 193//101 201//101 208//101 200//101
f 194//100 202//100 201//100 193//100
f 196//99 204//99 203//99 195//99
f 198//98 206//98 205//98 197//98
f 200//97 208//97 207//97 199//97
f 195//96 203//96 202//96 194//96
f 197//95 205//95 204//95 196//95
f 199//94 207//94 206//94 198//94
f 170//102 171//102 187//102 186//102
f 164//103 163//103 179//103 180//103
f 171//104 172//104 188//104 187//104
f 165//105 164//105 180//105 181//105
f 172//106 173//106 189//106 188//106
f 166//107 165//107 181//107 182//107
f 173//108 174//108 190//108 189//108
f 167//109 166//109 182//109 183//109
f 174//110 175//110 191//110 190//110
f 168//111 167//111 183//111 184//111
f 175//112 176//112 192//112 191//112
f 161//113 168//113 184//113 177//113
f 162//114 161//114 177//114 178//114
f 176//115 169//115 185//115 192//115
f 169//116 170//116 186//116 185//116
f 163//117 162//117 178//117 179//117
f 202//102 203//102 219//102 218//102
f 196//103 195//103 211//103 212//103
f 203//104 204//104 220//104 219//104
f 197//105 196//105 212//105 213//105
f 204//106 205//106 221//106 220//106
f 198//107 197//107 213//107 214//107
f 205//108 206//108 222//108 221//108
f 199//109 198//109 214//109 215//109
f 206//110 207//110 223//110 222//110
f 200//111 199//111 215//111 216//111
f 207//112 208//112 224//112 223//112
f 193//113 200//113 216//113 209//113
f 194//114 193//114 209//114 210//114
f 208//115 201//115 217//115 224//115
f 201//116 202//116 218//116 217//116
f 195//117 194//117 210//117 211//117
