# Blender v2.78 (sub 0) OBJ File: 'Pinheiro sem neve.blend'
# www.blender.org
mtllib Pinheiro sem neve.mtl
o Pinheiro_sem_neve_Cube.001
v -0.000000 0.025617 -0.596626
v -0.258866 0.025617 -0.537542
v -0.581667 0.025617 0.132762
v -0.466461 0.025617 0.371990
v -0.258866 0.025617 0.537542
v -0.000000 0.025617 0.596626
v 0.258866 0.025617 0.537542
v 0.581667 0.025617 0.132762
v 0.466461 0.025617 -0.371990
v 0.258866 0.025617 -0.537542
v -0.466461 0.025617 -0.371990
v -0.581667 0.025617 -0.132762
v 0.466461 0.025617 0.371990
v 0.581667 0.025617 -0.132762
v -0.000000 1.367439 -0.596626
v -0.258866 1.367439 -0.537542
v -0.466461 1.367439 -0.371990
v -0.581667 1.367439 -0.132762
v -0.581667 1.367439 0.132762
v -0.466461 1.367439 0.371990
v -0.258866 1.367439 0.537542
v -0.000000 1.367439 0.596626
v 0.258866 1.367439 0.537542
v 0.466461 1.367439 0.371990
v 0.581667 1.367439 0.132762
v 0.581667 1.367439 -0.132762
v 0.466461 1.367439 -0.371990
v 0.258866 1.367439 -0.537542
v -0.000000 1.367439 -0.596626
v -0.258866 1.367439 -0.537542
v -0.466461 1.367439 -0.371990
v -0.581667 1.367439 -0.132762
v -0.581667 1.367439 0.132762
v -0.466461 1.367439 0.371990
v -0.258866 1.367439 0.537542
v -0.000000 1.367439 0.596626
v 0.258866 1.367439 0.537542
v 0.466461 1.367439 0.371990
v 0.581667 1.367439 0.132762
v 0.581667 1.367439 -0.132762
v 0.466461 1.367439 -0.371990
v 0.258866 1.367439 -0.537542
v -1.823370 1.212471 -1.454089
v -2.831462 1.212470 -0.646263
v -2.270656 1.212470 1.810788
v -1.011894 1.212471 2.101219
v -0.000000 1.212470 2.904279
v 1.011894 1.212471 2.101220
v 2.273705 1.212471 0.518958
v -0.915947 5.851494 0.769315
v 0.035288 5.690934 1.233886
v 0.986524 5.530373 0.769316
v 0.799144 5.562001 -0.617772
v -0.728568 5.819867 -0.617771
v 0.563183 5.601829 -1.111693
v -1.150883 5.891150 -0.274565
v -0.917224 5.851710 0.220480
v 0.035288 5.690933 -0.990828
v 1.221459 5.490717 -0.274566
v 0.987801 5.530157 0.220480
v 0.459196 5.619381 0.892706
v -0.388620 5.762486 0.892705
v -0.492608 5.780038 -1.111693
v 0.933588 10.052913 -0.198256
v 0.830331 10.081428 -0.222440
v 0.784177 10.094172 -0.123611
v 0.701572 10.116984 -0.054938
v 0.747276 10.104362 0.044116
v 0.747526 10.104295 0.153933
v 0.850671 10.075810 0.178622
v 0.933588 10.052913 0.246890
v 1.016504 10.030015 0.178622
v 1.119649 10.001532 0.153933
v 1.119899 10.001462 0.044116
v 1.165603 9.988841 -0.054938
v 1.082998 10.011653 -0.123611
v 1.036844 10.024399 -0.222440
v 1.260118 1.212470 -2.616665
v 1.823370 1.212471 -1.454090
v 2.831463 1.212470 -0.646263
v 2.270656 1.212470 1.810789
v -2.273705 1.212471 0.518958
v -1.260119 1.212470 -2.616664
v 0.000000 1.212471 -2.332178
v -0.651354 5.666168 -1.397380
v -1.183485 5.755987 0.967017
v 0.012203 5.554164 -1.245455
v 1.209495 5.352071 0.277140
v -0.520643 5.644104 1.122116
v 1.503200 5.302495 -0.345125
v -1.478795 5.805833 -0.345124
v 0.675758 5.442162 -1.397380
v -0.947951 5.716231 -0.776529
v 1.207890 5.352342 0.967017
v 0.012202 5.554164 1.550974
v 0.972357 5.392098 -0.776529
v 0.545048 5.464225 1.122116
v -1.185090 5.756258 0.277140
v 0.044102 7.913741 -0.597975
v 0.098781 7.898641 0.480183
v 0.945399 7.664845 -0.147688
v -0.302035 8.009328 -0.147688
v 0.599262 7.760433 -0.597976
v -0.079971 7.948005 -0.332297
v 0.821865 7.698961 0.413812
v 0.321682 7.837087 0.663703
v -0.178500 7.975214 0.413812
v 0.321682 7.837087 -0.532963
v 0.822536 7.698775 0.118595
v 0.723336 7.726170 -0.332297
v 0.544583 7.775532 0.480183
v -0.179171 7.975399 0.118595
v -0.092697 7.848139 -0.835531
v -0.016295 7.827040 0.670944
v 1.166656 7.500365 -0.206359
v -0.576342 7.981699 -0.206359
v 0.683010 7.633926 -0.835532
v -0.266060 7.896014 -0.464307
v 0.994045 7.548034 0.578206
v 0.295157 7.741033 0.927370
v -0.403731 7.934031 0.578206
v 0.295157 7.741033 -0.744691
v 0.994983 7.547774 0.165709
v 0.856374 7.586051 -0.464308
v 0.606609 7.655025 0.670944
v -0.404669 7.934291 0.165709
v -1.072871 3.510193 -0.818428
v -0.616865 3.484389 1.182663
v 1.227755 3.380008 1.019195
v -1.639366 3.542249 -0.363746
v 0.520397 3.420035 1.182663
v 1.229468 3.379911 0.292094
v -0.048234 3.452212 -1.312657
v -1.325936 3.524513 0.292094
v 0.976404 3.394231 -0.818429
v -1.324223 3.524416 1.019195
v 0.659886 3.412142 -1.472780
v -0.048234 3.452212 1.634662
v -0.756354 3.492282 -1.472779
v 1.542898 3.362176 -0.363747
v -1.394535 3.366923 -1.068082
v -0.799428 3.333248 1.543423
v 1.607875 3.197027 1.330091
v -2.133834 3.408757 -0.474704
v 0.866783 3.238963 -1.922037
v -0.057342 3.291256 2.133300
v -0.981467 3.343549 -1.922037
v 2.019150 3.173754 -0.474704
v 0.684744 3.249263 1.543424
v 1.610111 3.196900 0.381194
v -0.057342 3.291255 -1.713071
v -1.724795 3.385610 0.381194
v 1.279852 3.215588 -1.068083
v -1.722559 3.385484 1.330091
vt 0.5293 0.1891
vt 0.5805 0.3551
vt 0.6550 0.3266
vt 0.5557 0.1837
vt 0.3429 0.1745
vt 0.3037 0.3440
vt 0.3378 0.3581
vt 0.3706 0.1769
vt 0.5041 0.1928
vt 0.5309 0.3547
vt 0.3171 0.1652
vt 0.2675 0.3417
vt 0.4777 0.1900
vt 0.4857 0.3662
vt 0.2897 0.1609
vt 0.2325 0.3227
vt 0.4509 0.1911
vt 0.4483 0.3604
vt 0.2649 0.1500
vt 0.1949 0.3155
vt 0.2383 0.1432
vt 0.1557 0.2887
vt 0.4243 0.1853
vt 0.4092 0.3662
vt 0.2157 0.1306
vt 0.1084 0.2721
vt 0.3969 0.1847
vt 0.3747 0.3564
vt 0.1924 0.1162
vt 0.0468 0.2188
vt 0.2761 0.4820
vt 0.2542 0.6345
vt 0.2864 0.6437
vt 0.3128 0.4970
vt 0.3200 0.6454
vt 0.3526 0.4951
vt 0.3522 0.6565
vt 0.3893 0.5101
vt 0.1088 0.4548
vt 0.1126 0.6275
vt 0.1505 0.6305
vt 0.1542 0.4710
vt 0.2345 0.8275
vt 0.2247 0.9560
vt 0.2301 0.9563
vt 0.2524 0.8345
vt 0.3081 0.8468
vt 0.2452 0.9626
vt 0.2502 0.9651
vt 0.3232 0.8600
vt 0.2352 0.9582
vt 0.2717 0.8340
vt 0.3433 0.8674
vt 0.2543 0.9691
vt 0.2588 0.9728
vt 0.3561 0.8849
vt 0.2405 0.9596
vt 0.2883 0.8438
vt 0.1156 0.8496
vt 0.1932 0.9637
vt 0.1981 0.9600
vt 0.1389 0.8451
vt 0.1569 0.8336
vt 0.2034 0.9585
vt 0.2085 0.9564
vt 0.1779 0.8340
vt 0.2157 0.8311
vt 0.2193 0.9552
vt 0.2140 0.9561
vt 0.1964 0.8270
vt 0.2467 0.9742
vt 0.2446 0.9800
vt 0.2402 0.9845
vt 0.2436 0.9897
vt 0.2443 0.9959
vt 0.2505 0.9966
vt 0.2558 0.9999
vt 0.2602 0.9955
vt 0.2660 0.9934
vt 0.2653 0.9872
vt 0.2674 0.9814
vt 0.2621 0.9780
vt 0.2529 0.9748
vt 0.4711 0.5254
vt 0.4204 0.6761
vt 0.4574 0.6871
vt 0.5192 0.5260
vt 0.1970 0.4684
vt 0.1864 0.6278
vt 0.2204 0.6348
vt 0.2362 0.4841
vt 0.3871 0.6615
vt 0.4317 0.5087
vt 0.3762 0.8977
vt 0.5645 0.5489
vt 0.4924 0.7083
vt 0.5323 0.7294
vt 0.6235 0.5564
vt 0.0585 0.4607
vt 0.0729 0.6348
vt 0.0001 0.4471
vt 0.0282 0.6394
vt 0.4134 0.6936
vt 0.4508 0.7020
vt 0.1853 0.6425
vt 0.2190 0.6520
vt 0.3478 0.6733
vt 0.3831 0.6758
vt 0.4808 0.7272
vt 0.5208 0.7448
vt 0.1510 0.6491
vt 0.2523 0.6486
vt 0.0769 0.6563
vt 0.1134 0.6436
vt 0.0331 0.6581
vt 0.3174 0.6594
vt 0.2837 0.6603
vt 0.3317 0.8458
vt 0.3513 0.8561
vt 0.1956 0.8142
vt 0.2158 0.8160
vt 0.2935 0.8294
vt 0.3134 0.8349
vt 0.3686 0.8711
vt 0.3873 0.8869
vt 0.1751 0.8181
vt 0.2358 0.8151
vt 0.1324 0.8280
vt 0.1535 0.8204
vt 0.1093 0.8354
vt 0.2747 0.8219
vt 0.2550 0.8199
vt 0.0001 0.4162
vt 0.0611 0.4283
vt 0.5231 0.5035
vt 0.5733 0.5176
vt 0.4344 0.4893
vt 0.4764 0.5004
vt 0.1129 0.4323
vt 0.2399 0.4614
vt 0.2794 0.4640
vt 0.1577 0.4457
vt 0.2009 0.4492
vt 0.6344 0.5278
vt 0.3934 0.4875
vt 0.3554 0.4770
vt 0.3165 0.4752
vt 0.4182 0.0544
vt 0.3969 0.1847
vt 0.4243 0.1853
vt 0.4407 0.0579
vt 0.2405 0.0001
vt 0.1924 0.1162
vt 0.2157 0.1306
vt 0.2635 0.0096
vt 0.3957 0.0501
vt 0.3706 0.1769
vt 0.5305 0.0641
vt 0.5293 0.1891
vt 0.5557 0.1837
vt 0.5531 0.0638
vt 0.3732 0.0453
vt 0.3429 0.1745
vt 0.5081 0.0637
vt 0.5041 0.1928
vt 0.3509 0.0397
vt 0.3171 0.1652
vt 0.4856 0.0626
vt 0.4777 0.1900
vt 0.3288 0.0333
vt 0.2897 0.1609
vt 0.4632 0.0607
vt 0.4509 0.1911
vt 0.3069 0.0262
vt 0.2649 0.1500
vt 0.2851 0.0183
vt 0.2383 0.1432
vn -0.0793 -0.9964 -0.0309
vn 0.0793 -0.9964 -0.0309
vn -0.0581 -0.9964 0.0623
vn 0.0849 -0.9964 -0.0066
vn -0.0737 -0.9964 0.0427
vn 0.0253 -0.9964 -0.0813
vn 0.0125 -0.9964 0.0842
vn 0.0478 -0.9964 -0.0705
vn -0.0478 -0.9964 -0.0705
vn -0.0125 -0.9964 0.0842
vn -0.0253 -0.9964 -0.0813
vn 0.0737 -0.9964 0.0427
vn -0.0849 -0.9964 -0.0066
vn 0.0581 -0.9964 0.0623
vn -0.8542 0.3057 0.4205
vn -0.5823 0.2944 -0.7578
vn -0.8507 0.3103 -0.4242
vn 0.6180 0.2585 0.7424
vn -0.7910 0.4435 0.4215
vn -0.1495 0.2663 -0.9522
vn -0.5307 0.3716 -0.7618
vn 0.6462 0.0466 -0.7618
vn -0.7891 0.4430 -0.4256
vn 0.9987 -0.0507 0.0023
vn 0.6427 0.0476 0.7646
vn 0.2693 0.1507 0.9512
vn -0.8832 0.4690 0.0023
vn -0.5272 0.3707 0.7646
vn 0.2662 0.9639 -0.0000
vn 0.8757 0.2555 -0.4097
vn -0.1911 0.2803 0.9407
vn 0.2381 0.2673 -0.9337
vn 0.9065 -0.0253 0.4215
vn 0.2650 0.1519 -0.9522
vn -0.1538 0.2675 0.9512
vn 0.9046 -0.0247 -0.4256
vn 0.8757 0.2640 0.4044
vn -0.5763 0.3036 0.7587
vn -0.9503 0.3113 0.0023
vn 0.2429 0.2828 0.9279
vn -0.1845 0.2937 -0.9379
vn 0.6199 0.2726 -0.7359
vn 0.9662 0.2578 0.0022
vn -0.5780 -0.7879 0.2126
vn -0.0372 -0.8792 -0.4751
vn -0.2512 -0.8430 0.4756
vn -0.5790 -0.7877 -0.2105
vn 0.1536 -0.9114 -0.3819
vn 0.3355 -0.9421 -0.0012
vn -0.2534 -0.8427 -0.4751
vn -0.4442 -0.8105 -0.3819
vn -0.6261 -0.7798 -0.0012
vn 0.2873 -0.9339 0.2126
vn -0.4460 -0.8102 0.3805
vn 0.1553 -0.9117 0.3805
vn -0.0394 -0.8788 0.4756
vn 0.2883 -0.9341 -0.2105
vn 0.8962 0.1720 -0.4089
vn -0.1591 0.3083 0.9379
vn 0.2650 0.2518 -0.9308
vn 0.8975 0.1767 0.4041
vn -0.5405 0.3660 0.7576
vn -0.9107 0.4130 0.0023
vn 0.2705 0.2603 0.9269
vn 0.6407 0.2033 0.7404
vn 0.9867 0.1628 0.0022
vn -0.8122 0.4011 -0.4236
vn 0.6440 0.2111 -0.7354
vn -0.5461 0.3611 -0.7559
vn -0.1526 0.3155 -0.9366
vn -0.8154 0.3987 0.4197
vn -0.6167 -0.7640 0.1895
vn -0.1456 -0.8942 -0.4234
vn -0.3320 -0.8427 0.4239
vn -0.6176 -0.7638 -0.1876
vn 0.0207 -0.9401 -0.3404
vn 0.1791 -0.9838 -0.0010
vn -0.3339 -0.8421 -0.4234
vn -0.5001 -0.7962 -0.3404
vn -0.6586 -0.7525 -0.0010
vn 0.1372 -0.9722 0.1895
vn -0.5017 -0.7958 0.3391
vn 0.0222 -0.9405 0.3391
vn -0.1475 -0.8936 0.4239
vn 0.1381 -0.9725 -0.1876
vn 0.9008 0.4342 0.0021
vn 0.5702 0.4296 -0.7002
vn -0.1934 0.4068 -0.8928
vn 0.2123 0.4194 0.8826
vn -0.9252 0.3795 0.0022
vn -0.5665 0.3945 0.7235
vn 0.8140 0.4349 0.3852
vn 0.2093 0.4050 -0.8901
vn -0.1992 0.3932 0.8976
vn 0.8152 0.4278 -0.3905
vn 0.5703 0.4173 0.7075
vn -0.8292 0.3848 -0.4053
vn -0.5728 0.3841 -0.7241
vn -0.8332 0.3793 0.4023
vn -0.4331 -0.9013 -0.0009
vn -0.2904 -0.9094 0.2977
vn 0.0317 -0.9276 0.3722
vn -0.1379 -0.9180 -0.3718
vn 0.3287 -0.9444 -0.0009
vn 0.1846 -0.9363 -0.2989
vn -0.3958 -0.9034 -0.1647
vn -0.1361 -0.9181 0.3722
vn 0.0334 -0.9277 -0.3718
vn -0.3950 -0.9035 0.1664
vn -0.2890 -0.9095 -0.2989
vn 0.2906 -0.9423 0.1664
vn 0.1860 -0.9364 0.2977
vn 0.2914 -0.9423 -0.1647
vn -0.6235 0.0000 -0.7818
vn 0.9010 0.0000 0.4339
vn -0.9010 0.0000 -0.4339
vn 1.0000 0.0000 0.0000
vn -1.0000 0.0000 0.0000
vn 0.9010 0.0000 -0.4339
vn -0.9010 0.0000 0.4339
vn 0.6235 0.0000 -0.7818
vn -0.6235 0.0000 0.7818
vn 0.2225 0.0000 -0.9749
vn -0.2225 0.0000 0.9749
vn 0.2225 0.0000 0.9749
vn -0.2225 0.0000 -0.9749
vn 0.6235 0.0000 0.7818
usemtl Pinheiro_sem_neve_(folhas)
s off
f 40/1/1 80/2/1 49/3/1 39/4/1
f 33/5/2 82/6/2 44/7/2 32/8/2
f 41/9/3 79/10/3 80/2/3 40/1/3
f 34/11/4 45/12/4 82/6/4 33/5/4
f 42/13/5 78/14/5 79/10/5 41/9/5
f 35/15/6 46/16/6 45/12/6 34/11/6
f 29/17/7 84/18/7 78/14/7 42/13/7
f 36/19/8 47/20/8 46/16/8 35/15/8
f 37/21/9 48/22/9 47/20/9 36/19/9
f 30/23/10 83/24/10 84/18/10 29/17/10
f 38/25/11 81/26/11 48/22/11 37/21/11
f 31/27/12 43/28/12 83/24/12 30/23/12
f 39/29/13 49/30/13 81/26/13 38/25/13
f 32/8/14 44/7/14 43/28/14 31/27/14
f 152/31/15 57/32/15 56/33/15 144/34/15
f 144/34/16 56/33/16 54/35/16 141/36/16
f 141/36/17 54/35/17 63/37/17 147/38/17
f 149/39/18 61/40/18 51/41/18 146/42/18
f 126/43/19 68/44/19 67/45/19 116/46/19
f 122/47/20 64/48/20 77/49/20 117/50/20
f 116/46/21 67/45/21 66/51/21 118/52/21
f 124/53/22 76/54/22 75/55/22 115/56/22
f 118/52/23 66/51/23 65/57/23 113/58/23
f 123/59/24 74/60/24 73/61/24 119/62/24
f 125/63/25 72/64/25 71/65/25 120/66/25
f 119/62/26 73/61/26 72/64/26 125/63/26
f 121/67/27 69/68/27 68/44/27 126/43/27
f 120/66/28 71/65/28 70/69/28 114/70/28
f 77/71/29 64/72/29 65/73/29 66/74/29 67/75/29 68/76/29 69/77/29 70/78/29 71/79/29 72/80/29 73/81/29 74/82/29 75/55/29 76/83/29
f 145/84/30 55/85/30 53/86/30 153/87/30
f 142/88/31 62/89/31 50/90/31 154/91/31
f 147/38/32 63/37/32 58/92/32 151/93/32
f 115/56/33 75/55/33 74/82/33 123/94/33
f 113/58/34 65/57/34 64/48/34 122/47/34
f 114/70/35 70/69/35 69/68/35 121/67/35
f 117/50/36 77/49/36 76/54/36 124/53/36
f 148/95/37 59/96/37 60/97/37 150/98/37
f 146/42/38 51/41/38 62/89/38 142/88/38
f 154/91/39 50/90/39 57/32/39 152/31/39
f 143/99/40 52/100/40 61/40/40 149/39/40
f 151/93/41 58/92/41 55/85/41 145/84/41
f 153/87/42 53/86/42 59/96/42 148/95/42
f 150/101/43 60/102/43 52/100/43 143/99/43
f 55/85/44 92/103/44 96/104/44 53/86/44
f 62/89/45 89/105/45 86/106/45 50/90/45
f 63/37/46 85/107/46 87/108/46 58/92/46
f 59/96/47 90/109/47 88/110/47 60/97/47
f 51/41/48 95/111/48 89/105/48 62/89/48
f 50/90/49 86/106/49 98/112/49 57/32/49
f 52/100/50 94/113/50 97/114/50 61/40/50
f 61/40/51 97/114/51 95/111/51 51/41/51
f 60/102/52 88/115/52 94/113/52 52/100/52
f 54/35/53 93/116/53 85/107/53 63/37/53
f 53/86/54 96/104/54 90/109/54 59/96/54
f 56/33/55 91/117/55 93/116/55 54/35/55
f 58/92/56 87/108/56 92/103/56 55/85/56
f 57/32/57 98/112/57 91/117/57 56/33/57
f 92/103/58 103/118/58 110/119/58 96/104/58
f 89/105/59 100/120/59 107/121/59 86/106/59
f 85/107/60 99/122/60 108/123/60 87/108/60
f 90/109/61 101/124/61 109/125/61 88/110/61
f 95/111/62 106/126/62 100/120/62 89/105/62
f 86/106/63 107/121/63 112/127/63 98/112/63
f 94/113/64 105/128/64 111/129/64 97/114/64
f 97/114/65 111/129/65 106/126/65 95/111/65
f 88/115/66 109/130/66 105/128/66 94/113/66
f 93/116/67 104/131/67 99/122/67 85/107/67
f 96/104/68 110/119/68 101/124/68 90/109/68
f 91/117/69 102/132/69 104/131/69 93/116/69
f 87/108/70 108/123/70 103/118/70 92/103/70
f 98/112/71 112/127/71 102/132/71 91/117/71
f 103/118/72 117/50/72 124/53/72 110/119/72
f 100/120/73 114/70/73 121/67/73 107/121/73
f 99/122/74 113/58/74 122/47/74 108/123/74
f 101/124/75 115/56/75 123/94/75 109/125/75
f 106/126/76 120/66/76 114/70/76 100/120/76
f 107/121/77 121/67/77 126/43/77 112/127/77
f 105/128/78 119/62/78 125/63/78 111/129/78
f 111/129/79 125/63/79 120/66/79 106/126/79
f 109/130/80 123/59/80 119/62/80 105/128/80
f 104/131/81 118/52/81 113/58/81 99/122/81
f 110/119/82 124/53/82 115/56/82 101/124/82
f 102/132/83 116/46/83 118/52/83 104/131/83
f 108/123/84 122/47/84 117/50/84 103/118/84
f 112/127/85 126/43/85 116/46/85 102/132/85
f 49/30/86 132/133/86 129/134/86 81/26/86
f 79/10/87 135/135/87 140/136/87 80/2/87
f 84/18/88 133/137/88 137/138/88 78/14/88
f 81/26/89 129/134/89 131/139/89 48/22/89
f 45/12/90 136/140/90 134/141/90 82/6/90
f 47/20/91 138/142/91 128/143/91 46/16/91
f 80/2/92 140/136/92 132/144/92 49/3/92
f 83/24/93 139/145/93 133/137/93 84/18/93
f 46/16/94 128/143/94 136/140/94 45/12/94
f 78/14/95 137/138/95 135/135/95 79/10/95
f 48/22/96 131/139/96 138/142/96 47/20/96
f 43/28/97 127/146/97 139/145/97 83/24/97
f 44/7/98 130/147/98 127/146/98 43/28/98
f 82/6/99 134/141/99 130/147/99 44/7/99
f 132/133/100 150/101/100 143/99/100 129/134/100
f 135/135/101 153/87/101 148/95/101 140/136/101
f 133/137/102 151/93/102 145/84/102 137/138/102
f 129/134/103 143/99/103 149/39/103 131/139/103
f 136/140/104 154/91/104 152/31/104 134/141/104
f 138/142/105 146/42/105 142/88/105 128/143/105
f 140/136/106 148/95/106 150/98/106 132/144/106
f 139/145/107 147/38/107 151/93/107 133/137/107
f 128/143/108 142/88/108 154/91/108 136/140/108
f 137/138/109 145/84/109 153/87/109 135/135/109
f 131/139/110 149/39/110 146/42/110 138/142/110
f 127/146/111 141/36/111 147/38/111 139/145/111
f 130/147/112 144/34/112 141/36/112 127/146/112
f 134/141/113 152/31/113 144/34/113 130/147/113
usemtl Pinheiro_sem_neve_(tronco)
f 11/148/114 17/149/114 16/150/114 2/151/114
f 8/152/115 25/153/115 24/154/115 13/155/115
f 12/156/116 18/157/116 17/149/116 11/148/116
f 14/158/117 26/159/117 25/160/117 8/161/117
f 3/162/118 19/163/118 18/157/118 12/156/118
f 9/164/119 27/165/119 26/159/119 14/158/119
f 4/166/120 20/167/120 19/163/120 3/162/120
f 10/168/121 28/169/121 27/165/121 9/164/121
f 5/170/122 21/171/122 20/167/122 4/166/122
f 1/172/123 15/173/123 28/169/123 10/168/123
f 6/174/124 22/175/124 21/171/124 5/170/124
f 7/176/125 23/177/125 22/175/125 6/174/125
f 2/151/126 16/150/126 15/173/126 1/172/126
f 13/155/127 24/154/127 23/177/127 7/176/127
