# Blender v2.78 (sub 0) OBJ File: 'Árvore morta.blend'
# www.blender.org
mtllib Árvore morta.mtl
o Árvore_morta_Circle
v 0.134160 0.255684 -0.065156
v 0.463073 0.249265 0.268769
v -0.467972 0.249265 0.268769
v 0.000000 0.371735 0.285720
v -0.467972 0.249265 -0.268769
v 0.247440 0.371735 -0.142860
v 0.311554 0.208768 -0.058663
v -0.247440 0.371735 -0.142860
v -0.247440 0.371735 0.142860
v 0.133221 0.208768 0.250219
v 0.247440 0.371735 0.142860
v -0.002449 0.249265 -0.537539
v 0.485314 7.840850 -0.063535
v 0.430290 7.840850 -0.031767
v 0.430290 7.840850 0.031769
v 0.485314 7.840850 0.063537
v 0.540338 7.840850 0.031769
v 0.540338 7.840850 -0.031767
v 0.716126 3.312349 -0.126989
v 0.656464 3.932701 -0.111119
v 0.510625 5.076822 -0.095249
v 0.364787 5.492974 -0.079378
v 0.668978 6.627566 -0.063508
v 0.498495 7.294872 -0.047637
v 0.415983 7.294872 -0.095276
v 0.558977 6.627566 -0.127016
v 0.229123 5.470654 -0.158757
v 0.347838 5.050039 -0.190498
v 0.466553 3.901454 -0.222238
v 0.499092 3.276640 -0.253979
v 0.499092 3.276640 0.253979
v 0.466553 3.901454 0.222239
v 0.347838 5.050039 0.190499
v 0.229123 5.470654 0.158758
v 0.558978 6.627566 0.127018
v 0.415983 7.294872 0.095278
v 0.498495 7.294872 0.047639
v 0.668978 6.627566 0.063509
v 0.364787 5.492974 0.079379
v 0.510625 5.076822 0.095249
v 0.656464 3.932701 0.111120
v 0.716126 3.312349 0.126990
v 0.282057 3.240931 -0.126989
v 0.276642 3.870208 -0.111119
v 0.185050 5.023255 -0.095249
v 0.093459 5.448332 -0.079378
v 0.448977 6.627566 -0.063508
v 0.333471 7.294872 -0.047637
v 0.333471 7.294872 0.047639
v 0.448977 6.627566 0.063509
v 0.093459 5.448332 0.079379
v 0.185050 5.023255 0.095250
v 0.276642 3.870208 0.111120
v 0.282057 3.240931 0.126990
v 0.800486 3.441684 -0.077814
v 0.763927 3.821814 -0.068090
v 0.763927 3.821814 0.068090
v 0.800486 3.441684 0.077815
v 1.602126 4.135978 -0.035275
v 1.465859 4.242753 -0.030867
v 1.465859 4.242753 0.030867
v 1.602126 4.135978 0.035276
v 2.761502 5.679779 -0.019139
v 2.687568 5.737711 -0.016747
v 2.687568 5.737711 0.016748
v 2.761502 5.679779 0.019140
v 3.759691 6.978236 0.881831
v 3.709604 7.017483 0.883452
v 3.709604 7.017483 0.906143
v 3.759691 6.978236 0.907763
v 0.027314 5.059888 -0.065004
v -0.035194 5.349989 -0.054173
v -0.035194 5.349989 0.054174
v 0.027314 5.059888 0.065005
v -3.223899 6.331647 -0.014698
v -3.238032 6.397241 -0.012249
v -3.238032 6.397241 0.012250
v -3.223899 6.331647 0.014699
v 2.634509 5.510677 -0.020907
v 2.553747 5.573959 -0.018294
v 2.553747 5.573959 0.018294
v 2.634509 5.510677 0.020907
v 2.692564 5.644542 -0.064527
v 2.668014 5.663780 -0.063733
v 2.650395 5.588391 -0.065114
v 2.623577 5.609405 -0.064246
v 2.664808 5.658770 -1.031530
v 2.649699 5.670609 -1.031041
v 2.638856 5.624214 -1.031891
v 2.622352 5.637146 -1.031357
v 0.613286 4.271437 -0.106420
v 0.431405 4.241512 -0.212841
v 0.431405 4.241512 0.212842
v 0.613286 4.271437 0.106421
v 0.249525 4.211587 -0.106420
v 0.249525 4.211587 0.106421
v 0.347035 3.945102 -0.350302
v 0.216502 3.923626 -0.273926
v 0.322876 4.178837 -0.343843
v 0.197863 4.158268 -0.270696
v -1.548464 4.685744 -2.521713
v -1.612983 4.666782 -2.484186
v -1.580645 4.799578 -2.528820
v -1.642435 4.781417 -2.492879
v -0.012247 0.023920 -0.751948
v 0.129468 0.122442 0.332355
v 0.378933 0.122442 -0.099731
v -0.663453 0.023920 -0.375974
v -0.663453 0.023920 0.375974
v 0.638959 0.023920 0.375974
v -0.600715 4.315423 -1.436008
v -0.698241 4.295204 -1.379056
v -0.722286 4.469843 -1.381788
v -0.628884 4.489208 -1.436331
v -0.543980 4.232542 -1.192689
v -0.567114 4.417300 -1.194416
v -0.440888 4.252973 -1.252917
v -0.468381 4.436867 -1.252096
v -0.521714 4.350474 -1.431873
v -0.536539 4.441935 -1.432043
v -0.437600 4.317607 -1.335515
v -0.452069 4.414389 -1.335083
v 1.162187 4.630278 -2.769550
v 1.156680 4.664256 -2.769613
v 1.193437 4.618067 -2.733752
v 1.188061 4.654023 -2.733591
v 0.604930 4.591811 -2.333755
v 0.653611 4.575936 -2.277875
v 0.613474 4.539102 -2.333657
v 0.661950 4.520160 -2.278124
v 0.525423 4.557207 -2.168572
v 0.472593 4.574434 -2.229214
v 0.481865 4.517233 -2.229108
v 0.534473 4.496676 -2.168842
v 0.585626 4.619448 -2.282599
v 0.608867 4.611870 -2.255922
v 0.547670 4.602929 -2.203741
v 0.522448 4.611153 -2.232691
v 0.654025 6.111876 -1.900537
v 0.660276 6.109838 -1.893361
v 0.643816 6.107433 -1.879326
v 0.637032 6.109645 -1.887113
v -1.600429 5.861784 0.033685
v -1.600429 5.861784 -0.033684
v -1.561561 5.681400 0.040420
v -1.561561 5.681400 -0.040419
v -1.405832 5.798155 -0.036232
v -1.405832 5.798155 0.036233
v -1.364026 5.604130 0.043477
v -1.364026 5.604130 -0.043476
v -1.550751 5.810828 0.093374
v -1.528339 5.706814 0.097257
v -1.438542 5.774137 0.094843
v -1.414435 5.662258 0.099020
v -1.509353 6.926805 1.688364
v -1.501139 6.888686 1.689787
v -1.468230 6.913359 1.688902
v -1.459395 6.872357 1.690433
v 0.583549 4.504726 -0.103184
v 0.407199 4.475712 0.206370
v 0.230849 4.446697 -0.103184
v 0.407199 4.475712 -0.206369
v 0.583549 4.504726 0.103185
v 0.230849 4.446697 0.103185
v -0.877790 5.177559 2.328490
v -0.947566 5.166079 2.287663
v -0.887076 5.267406 2.326007
v -0.954730 5.256274 2.286422
v -1.928057 5.147432 4.079257
v -1.950069 5.143810 4.066377
v -1.930986 5.175776 4.078474
v -1.952329 5.172265 4.065986
v -0.796135 5.119178 2.196537
v -0.806352 5.218028 2.193805
v -0.880786 5.205781 2.150253
v -0.872903 5.106547 2.151619
v 1.334521 5.451157 3.515002
v 1.332230 5.473321 3.514390
v 1.354664 5.436755 3.482451
v 1.352143 5.461140 3.481777
v 0.272895 5.339584 2.837791
v 0.222577 5.370363 2.920198
v 0.228365 5.314358 2.921746
v 0.279264 5.277966 2.839494
v 0.136065 5.362336 2.873873
v 0.195423 5.265587 2.789367
v 0.188754 5.330107 2.787584
v 0.142126 5.303693 2.875494
v 0.238069 5.381032 2.835823
v 0.215706 5.394710 2.872446
v 0.177259 5.391143 2.851859
v 0.200675 5.376819 2.813510
v 0.313100 6.576305 2.454824
v 0.306512 6.580335 2.465613
v 0.295187 6.579284 2.459548
v 0.302085 6.575064 2.448251
vn 0.0170 0.5111 0.8593
vn 0.5000 -0.0131 -0.8660
vn 0.5000 -0.0131 0.8660
vn -0.9846 0.1746 0.0000
vn 0.9971 -0.0764 0.0000
vn -0.4968 0.1131 0.8605
vn -0.4968 0.1131 -0.8605
vn -0.0842 -0.0165 -0.9963
vn -0.5071 0.0174 -0.8617
vn -0.5014 -0.0279 -0.8648
vn -0.4945 -0.0742 -0.8660
vn -0.5070 0.1660 -0.8458
vn -0.4989 -0.0658 -0.8641
vn -0.5055 0.0971 0.8573
vn -0.5071 0.0174 0.8617
vn -0.5014 -0.0279 0.8648
vn -0.4945 -0.0742 0.8660
vn -0.5070 0.1660 0.8458
vn -0.4989 -0.0658 0.8641
vn 0.9875 -0.1574 0.0000
vn 0.4273 0.0642 -0.9018
vn 0.9920 0.1264 0.0000
vn 0.9437 0.3307 0.0000
vn 0.9659 -0.2590 -0.0000
vn 0.9689 0.2475 0.0000
vn -0.9834 0.1815 0.0000
vn -1.0000 -0.0086 0.0000
vn -0.9969 -0.0792 0.0000
vn -0.2262 -0.9741 0.0000
vn -0.9574 0.2887 0.0000
vn -0.9853 -0.1706 0.0000
vn 0.5053 -0.0767 0.8595
vn 0.4952 0.0698 0.8660
vn 0.4944 0.0750 0.8660
vn 0.4706 0.1977 0.8599
vn 0.5073 -0.1226 0.8530
vn 0.4946 0.1467 0.8567
vn 0.1709 -0.0524 -0.9839
vn 0.4952 0.0698 -0.8660
vn 0.4944 0.0750 -0.8660
vn 0.4706 0.1977 -0.8599
vn 0.5073 -0.1226 -0.8530
vn 0.4946 0.1467 -0.8567
vn 0.6547 -0.7559 0.0000
vn 0.4273 0.0642 0.9018
vn 0.8376 -0.5463 0.0000
vn 0.7181 0.6959 0.0000
vn -0.3477 -0.4089 -0.8438
vn 0.0249 0.0378 -0.9990
vn -0.5143 0.8576 0.0000
vn 0.0249 0.0378 0.9990
vn -0.7814 0.6240 0.0000
vn -0.7743 0.6328 0.0000
vn -0.0152 0.0219 0.9996
vn 0.7996 -0.6005 0.0000
vn 0.6168 0.7871 0.0000
vn -0.3118 -0.3616 0.8786
vn 0.7928 -0.6095 0.0000
vn 0.2796 0.3929 -0.8760
vn 0.3108 0.9505 0.0000
vn -0.6073 0.7945 0.0000
vn -0.1892 -0.0041 0.9819
vn -0.1892 -0.0041 -0.9819
vn -0.9776 -0.2106 0.0000
vn -0.0009 0.0371 0.9993
vn -0.3643 -0.9313 0.0000
vn -0.0009 0.0371 -0.9993
vn -0.0152 0.0219 -0.9996
vn -0.6171 -0.7866 -0.0218
vn 0.6403 -0.4745 -0.6041
vn 0.3222 0.4456 -0.8353
vn -0.6375 0.5263 -0.5628
vn 0.7994 -0.6000 -0.0318
vn -0.7743 0.6326 0.0191
vn 0.6167 0.7872 -0.0061
vn -0.2800 0.9355 -0.2156
vn 0.0279 -0.9394 -0.3418
vn 0.7437 0.0952 -0.6617
vn -0.0215 -0.9523 -0.3045
vn -0.9433 -0.0794 0.3224
vn -0.4537 -0.1827 -0.8722
vn -0.7826 -0.1206 0.6108
vn 0.7677 0.1450 -0.6242
vn -0.0491 0.9496 0.3097
vn -0.0287 0.5074 0.8613
vn -0.3818 0.6458 -0.6612
vn 0.7135 0.5183 -0.4714
vn 0.7743 0.5894 -0.2303
vn -0.1211 0.3332 0.9351
vn 0.0752 0.9646 -0.2527
vn 0.1550 0.4654 0.8714
vn -0.4855 0.8742 0.0000
vn 0.2459 0.8707 -0.4259
vn -0.7554 0.6553 0.0000
vn 0.7715 0.5264 -0.3573
vn -0.0242 0.9566 0.2905
vn 0.3588 -0.7420 -0.5663
vn -0.7810 -0.0949 0.6173
vn 0.0031 -0.9464 -0.3231
vn -0.0118 -0.9501 -0.3117
vn -0.7798 -0.0799 0.6210
vn 0.7656 0.1057 -0.6346
vn -0.0092 0.9603 0.2789
vn 0.0536 0.9719 0.2294
vn 0.0495 0.0062 -0.9988
vn 0.4561 0.8775 -0.1480
vn 0.9775 0.1455 0.1527
vn 0.7665 0.1202 -0.6309
vn -0.6086 -0.1001 -0.7871
vn -0.0594 -0.9595 -0.2754
vn 0.6383 0.0920 0.7643
vn 0.5354 0.8109 -0.2361
vn 0.6525 -0.1993 0.7311
vn -0.4537 0.6715 0.5860
vn 0.5972 0.2858 0.7494
vn -0.5200 0.6540 -0.5495
vn -0.6223 0.2208 -0.7510
vn -0.7634 -0.0892 0.6397
vn 0.7655 0.1264 -0.6309
vn -0.8207 -0.1563 0.5496
vn 0.9705 0.2043 -0.1280
vn -0.3150 -0.7841 0.5347
vn 0.8196 0.1967 0.5380
vn 0.2654 0.8311 0.4887
vn -0.3068 -0.7618 0.5706
vn -0.9652 -0.2018 0.1662
vn 0.2646 0.7869 -0.5575
vn 0.0766 0.9485 -0.3075
vn 0.8523 0.1023 0.5130
vn 0.0375 0.9434 -0.3295
vn -0.8879 -0.0768 -0.4537
vn -0.0642 -0.9267 0.3703
vn -0.8683 -0.0757 -0.4903
vn -0.1431 0.9891 -0.0335
vn 0.1279 -0.9900 0.0597
vn 0.8656 0.1030 0.4901
vn -0.0792 -0.9288 0.3619
vn -0.4702 -0.0242 0.8822
vn 0.5098 0.0289 -0.8598
vn 0.7424 0.6341 0.2165
vn -0.4703 0.3184 0.8231
vn -0.6517 0.4884 -0.5803
vn -0.3260 0.8224 0.4662
vn 0.4529 0.3415 -0.8235
vn 0.5143 -0.2896 -0.8072
vn -0.8636 -0.0787 -0.4979
vn 0.8655 0.1020 0.4904
vn 0.0000 1.0000 0.0000
usemtl Árvore_morta
s off
f 3//1 109//1 106//1 10//1
f 25//2 13//2 18//2 24//2
f 37//3 17//3 16//3 36//3
f 49//4 15//4 14//4 48//4
f 24//5 18//5 17//5 37//5
f 36//6 16//6 15//6 49//6
f 48//7 14//7 13//7 25//7
f 8//8 43//8 30//8 1//8
f 43//9 44//9 29//9 30//9
f 161//10 45//10 28//10 162//10
f 45//11 46//11 27//11 28//11
f 46//12 47//12 26//12 27//12
f 47//13 48//13 25//13 26//13
f 4//14 31//14 54//14 9//14
f 31//15 32//15 53//15 54//15
f 160//16 33//16 52//16 164//16
f 33//17 34//17 51//17 52//17
f 34//18 35//18 50//18 51//18
f 35//19 36//19 49//19 50//19
f 6//20 19//20 42//20 11//20
f 20//21 56//21 55//21 19//21
f 159//22 21//22 40//22 163//22
f 21//23 22//23 39//23 40//23
f 22//24 23//24 38//24 39//24
f 23//25 24//25 37//25 38//25
f 9//26 54//26 43//26 8//26
f 54//27 53//27 44//27 43//27
f 164//28 52//28 45//28 161//28
f 52//29 74//29 71//29 45//29
f 51//30 50//30 47//30 46//30
f 50//31 49//31 48//31 47//31
f 11//32 42//32 31//32 4//32
f 42//33 41//33 32//33 31//33
f 163//34 40//34 33//34 160//34
f 40//35 39//35 34//35 33//35
f 39//36 38//36 35//36 34//36
f 38//37 37//37 36//37 35//37
f 1//38 30//38 19//38 6//38
f 30//39 29//39 20//39 19//39
f 162//40 28//40 21//40 159//40
f 28//41 27//41 22//41 21//41
f 27//42 26//42 23//42 22//42
f 26//43 25//43 24//43 23//43
f 55//44 59//44 62//44 58//44
f 42//45 58//45 57//45 41//45
f 19//46 55//46 58//46 42//46
f 41//47 57//47 56//47 20//47
f 80//48 86//48 85//48 79//48
f 56//49 60//49 59//49 55//49
f 57//50 61//50 60//50 56//50
f 58//51 62//51 61//51 57//51
f 65//52 69//52 68//52 64//52
f 81//53 65//53 64//53 80//53
f 82//54 66//54 65//54 81//54
f 79//55 63//55 66//55 82//55
f 67//56 68//56 69//56 70//56
f 66//57 70//57 69//57 65//57
f 63//58 67//58 70//58 66//58
f 64//59 68//59 67//59 63//59
f 144//60 76//60 77//60 143//60
f 46//61 72//61 73//61 51//61
f 51//62 73//62 74//62 52//62
f 45//63 71//63 72//63 46//63
f 78//64 77//64 76//64 75//64
f 143//65 77//65 78//65 145//65
f 145//66 78//66 75//66 146//66
f 146//67 75//67 76//67 144//67
f 59//55 79//55 82//55 62//55
f 62//54 82//54 81//54 61//54
f 61//53 81//53 80//53 60//53
f 60//68 80//68 79//68 59//68
f 86//69 90//69 89//69 85//69
f 79//70 85//70 83//70 63//70
f 63//71 83//71 84//71 64//71
f 64//72 84//72 86//72 80//72
f 90//68 88//68 87//68 89//68
f 85//73 89//73 87//73 83//73
f 84//74 88//74 90//74 86//74
f 83//75 87//75 88//75 84//75
f 29//40 92//40 91//40 20//40
f 41//34 94//34 93//34 32//34
f 53//28 96//28 95//28 44//28
f 20//22 91//22 94//22 41//22
f 32//16 93//16 96//16 53//16
f 92//76 99//76 100//76 95//76
f 112//77 102//77 101//77 111//77
f 29//78 97//78 99//78 92//78
f 44//79 98//79 97//79 29//79
f 95//80 100//80 98//80 44//80
f 102//81 104//81 103//81 101//81
f 113//82 104//82 102//82 112//82
f 111//83 101//83 103//83 114//83
f 114//84 103//84 104//84 113//84
f 10//85 106//85 110//85 2//85
f 12//86 105//86 108//86 5//86
f 7//87 107//87 105//87 12//87
f 11//88 2//88 7//88 6//88
f 9//89 3//89 10//89 4//89
f 1//90 12//90 5//90 8//90
f 4//91 10//91 2//91 11//91
f 8//92 5//92 3//92 9//92
f 6//93 7//93 12//93 1//93
f 5//94 108//94 109//94 3//94
f 2//95 110//95 107//95 7//95
f 118//96 114//96 113//96 116//96
f 111//97 119//97 121//97 117//97
f 116//98 113//98 112//98 115//98
f 115//99 112//99 111//99 117//99
f 98//100 115//100 117//100 97//100
f 100//101 116//101 115//101 98//101
f 97//102 117//102 118//102 99//102
f 99//103 118//103 116//103 100//103
f 128//104 126//104 124//104 127//104
f 114//105 120//105 119//105 111//105
f 118//106 122//106 120//106 114//106
f 117//107 121//107 122//107 118//107
f 125//108 123//108 124//108 126//108
f 127//109 124//109 123//109 129//109
f 129//110 123//110 125//110 130//110
f 130//111 125//111 126//111 128//111
f 134//111 130//111 128//111 131//111
f 133//110 129//110 130//110 134//110
f 132//109 127//109 129//109 133//109
f 127//112 135//112 136//112 128//112
f 122//104 131//104 132//104 120//104
f 120//109 132//109 133//109 119//109
f 119//110 133//110 134//110 121//110
f 121//111 134//111 131//111 122//111
f 136//113 140//113 141//113 137//113
f 131//114 137//114 138//114 132//114
f 128//115 136//115 137//115 131//115
f 132//116 138//116 135//116 127//116
f 141//104 140//104 139//104 142//104
f 138//117 142//117 139//117 135//117
f 137//118 141//118 142//118 138//118
f 135//119 139//119 140//119 136//119
f 150//67 146//67 144//67 147//67
f 149//66 145//66 146//66 150//66
f 145//120 152//120 151//120 143//120
f 147//60 144//60 143//60 148//60
f 72//60 147//60 148//60 73//60
f 73//65 148//65 149//65 74//65
f 74//66 149//66 150//66 71//66
f 71//67 150//67 147//67 72//67
f 153//121 157//121 158//121 154//121
f 149//122 154//122 152//122 145//122
f 148//123 153//123 154//123 149//123
f 143//124 151//124 153//124 148//124
f 157//65 155//65 156//65 158//65
f 154//125 158//125 156//125 152//125
f 152//126 156//126 155//126 151//126
f 151//127 155//127 157//127 153//127
f 92//40 162//40 159//40 91//40
f 94//34 163//34 160//34 93//34
f 96//28 164//28 161//28 95//28
f 91//22 159//22 163//22 94//22
f 182//128 178//128 180//128 181//128
f 95//10 161//10 162//10 92//10
f 167//129 171//129 169//129 165//129
f 175//130 168//130 167//130 174//130
f 176//131 166//131 168//131 175//131
f 173//132 165//132 166//132 176//132
f 169//16 171//16 172//16 170//16
f 166//133 170//133 172//133 168//133
f 168//134 172//134 171//134 167//134
f 165//135 169//135 170//135 166//135
f 93//132 173//132 176//132 96//132
f 96//131 176//131 175//131 164//131
f 164//130 175//130 174//130 160//130
f 160//136 174//136 173//136 93//136
f 180//136 178//136 177//136 179//136
f 184//137 179//137 177//137 183//137
f 183//138 177//138 178//138 182//138
f 181//139 180//139 179//139 184//139
f 187//139 181//139 184//139 186//139
f 188//138 183//138 182//138 185//138
f 186//137 184//137 183//137 188//137
f 181//140 189//140 190//140 182//140
f 167//128 185//128 187//128 174//128
f 173//137 186//137 188//137 165//137
f 165//138 188//138 185//138 167//138
f 174//139 187//139 186//139 173//139
f 190//141 194//141 195//141 191//141
f 185//142 191//142 192//142 187//142
f 182//143 190//143 191//143 185//143
f 187//144 192//144 189//144 181//144
f 195//128 194//128 193//128 196//128
f 192//145 196//145 193//145 189//145
f 191//146 195//146 196//146 192//146
f 189//147 193//147 194//147 190//147
f 14//148 15//148 16//148 17//148 18//148 13//148
