# Blender v2.78 (sub 0) OBJ File: 'ExplosionCube.blend'
# www.blender.org
mtllib ExplosionCube2.mtl
o NORMAL_Cube.002
v 0.809085 -0.809085 -0.809085
v 0.809085 -0.809085 0.809085
v -0.809085 -0.809085 0.809084
v -0.809084 -0.809085 -0.809085
v 0.809085 0.809085 -0.809084
v 0.809084 0.809085 0.809085
v -0.809085 0.809085 0.809084
v -0.809085 0.809085 -0.809085
v 0.809085 -0.809085 -0.269695
v 0.809085 -0.809085 0.269695
v -0.809085 -0.809085 0.269695
v -0.809084 -0.809085 -0.269695
v 0.809085 0.809085 -0.269694
v 0.809084 0.809085 0.269695
v -0.809085 0.809085 0.269695
v -0.809085 0.809085 -0.269695
v 0.809085 -0.269695 -0.809084
v 0.809085 0.269695 -0.809084
v 0.809084 -0.269695 0.809085
v 0.809084 0.269695 0.809085
v -0.809085 -0.269695 0.809084
v -0.809085 0.269695 0.809084
v -0.809084 -0.269695 -0.809085
v -0.809084 0.269695 -0.809085
v -0.809085 0.269695 0.269695
v -0.809085 -0.269695 0.269695
v -0.809085 0.269695 -0.269695
v -0.809084 -0.269695 -0.269695
v 0.809085 0.269695 -0.269695
v 0.809085 -0.269695 -0.269695
v 0.809084 0.269695 0.269695
v 0.809084 -0.269695 0.269695
v 0.269695 -0.809085 -0.809085
v -0.269695 -0.809085 -0.809085
v 0.269695 -0.809085 0.809085
v -0.269695 -0.809085 0.809084
v 0.269695 0.809085 -0.809084
v -0.269695 0.809085 -0.809084
v 0.269694 0.809085 0.809085
v -0.269695 0.809085 0.809085
v -0.269695 0.809085 -0.269695
v 0.269695 0.809085 -0.269695
v -0.269695 0.809085 0.269695
v 0.269695 0.809085 0.269695
v 0.269695 -0.809085 -0.269695
v -0.269695 -0.809085 -0.269695
v 0.269695 -0.809085 0.269695
v -0.269695 -0.809085 0.269695
v 0.269695 0.269695 -0.809084
v -0.269695 0.269695 -0.809085
v 0.269695 -0.269695 -0.809085
v -0.269695 -0.269695 -0.809085
v 0.269695 -0.269695 0.809085
v -0.269695 -0.269695 0.809085
v 0.269695 0.269695 0.809085
v -0.269695 0.269695 0.809085
v -0.999662 0.132025 0.132025
v -0.999662 -0.132025 0.132025
v -0.999662 0.132025 -0.132025
v -0.999662 -0.132025 -0.132025
v 0.999662 0.132025 -0.132025
v 0.999662 -0.132025 -0.132025
v 0.999662 0.132025 0.132025
v 0.999662 -0.132025 0.132025
v -0.132025 0.999662 -0.132025
v 0.132025 0.999662 -0.132025
v -0.132025 0.999662 0.132025
v 0.132025 0.999662 0.132025
v 0.132025 -0.999662 -0.132025
v -0.132025 -0.999662 -0.132025
v 0.132025 -0.999662 0.132025
v -0.132025 -0.999662 0.132025
v 0.132025 0.132025 -0.999662
v -0.132025 0.132025 -0.999662
v 0.132025 -0.132025 -0.999662
v -0.132025 -0.132025 -0.999662
v 0.132025 -0.132025 0.999662
v -0.132025 -0.132025 0.999662
v 0.132025 0.132025 0.999662
v -0.132025 0.132025 0.999662
vt 0.5371 0.1634
vt 0.5126 0.2336
vt 0.4426 0.2081
vt 0.4678 0.1371
vt 0.4132 0.5165
vt 0.3414 0.4929
vt 0.3666 0.4205
vt 0.4388 0.4456
vt 0.6283 0.8306
vt 0.6523 0.7569
vt 0.7267 0.7825
vt 0.7012 0.8569
vt 0.4629 0.3744
vt 0.3920 0.3482
vt 0.1955 0.6797
vt 0.2197 0.6076
vt 0.2924 0.6337
vt 0.2674 0.7054
vt 0.3146 0.8029
vt 0.2906 0.8756
vt 0.2175 0.8497
vt 0.2425 0.7775
vt 0.0528 0.6275
vt 0.0783 0.5577
vt 0.1481 0.5827
vt 0.1239 0.6542
vt 0.4832 0.7805
vt 0.5075 0.7079
vt 0.5792 0.7325
vt 0.5556 0.8057
vt 0.3627 0.6586
vt 0.3170 0.5640
vt 0.3883 0.5875
vt 0.5856 0.0243
vt 0.5622 0.0936
vt 0.4935 0.0677
vt 0.5182 0.0001
vt 0.5075 0.9510
vt 0.5312 0.8783
vt 0.6035 0.9033
vt 0.5798 0.9754
vt 0.1706 0.7518
vt 0.1533 0.7201
vt 0.1646 0.6967
vt 0.4342 0.9255
vt 0.4588 0.8531
vt 0.0739 0.7993
vt 0.0985 0.7262
vt 0.1464 0.8244
vt 0.5332 0.3998
vt 0.4933 0.3579
vt 0.5165 0.3687
vt 0.0001 0.7732
vt 0.0262 0.6994
vt 0.3390 0.7308
vt 0.4881 0.3040
vt 0.4178 0.2776
vt 0.6752 0.9294
vt 0.6502 0.9999
vt 0.6280 0.3554
vt 0.6028 0.4256
vt 0.5581 0.3295
vt 0.6069 0.1887
vt 0.5673 0.1471
vt 0.5902 0.1578
vt 0.6527 0.2842
vt 0.5826 0.2590
vt 0.3867 0.8279
vt 0.4110 0.7554
vt 0.4301 0.5468
vt 0.4195 0.5702
vt 0.4345 0.6832
vt 0.7020 0.1445
vt 0.6769 0.2147
vt 0.6317 0.1189
vt 0.5973 0.8481
vt 0.5733 0.8374
vt 0.7267 0.0730
vt 0.6552 0.0483
vt 0.5320 0.6347
vt 0.4599 0.6117
vt 0.4842 0.5406
vt 0.5551 0.5633
vt 0.3566 0.7622
vt 0.3454 0.7857
vt 0.3629 0.9004
vt 0.5785 0.4944
vt 0.5096 0.4703
vt 0.5621 0.8609
vt 0.5860 0.8717
vt 0.1296 0.7092
vt 0.1409 0.6858
vt 0.5278 0.3459
vt 0.5047 0.3351
vt 0.3803 0.7728
vt 0.3692 0.7963
vt 0.6015 0.1352
vt 0.5786 0.1245
vt 0.4427 0.5813
vt 0.4532 0.5579
vn 0.0000 -1.0000 0.0000
vn 0.0000 1.0000 0.0000
vn 1.0000 0.0000 0.0000
vn -0.0000 0.0000 1.0000
vn -1.0000 -0.0000 -0.0000
vn 0.0000 0.0000 -1.0000
vn -0.5856 -0.0000 -0.8106
vn -0.0000 0.8106 0.5856
vn -0.0000 -0.5856 0.8106
vn -0.8106 0.5856 -0.0000
vn 0.5856 0.8106 0.0000
vn -0.8106 0.0000 -0.5856
vn 0.0000 0.5856 -0.8106
vn 0.8106 0.0000 0.5856
vn 0.0000 0.8106 -0.5856
vn 0.8106 -0.5856 0.0000
vn -0.8106 -0.0000 0.5856
vn -0.5856 -0.8106 -0.0000
vn 0.5856 0.0000 -0.8106
vn -0.8106 -0.5856 -0.0000
vn -0.0000 0.5856 0.8106
vn -0.5856 0.8106 -0.0000
vn 0.0000 -0.8106 -0.5856
vn 0.5856 -0.0000 0.8106
vn 0.0000 -0.5856 -0.8106
vn 0.8106 -0.0000 -0.5856
vn -0.0000 -0.8106 0.5856
vn 0.5856 -0.8106 0.0000
vn 0.8106 0.5856 0.0000
vn -0.5856 0.0000 0.8106
usemtl Material
s off
f 48/1/1 36/2/1 3/3/1 11/4/1
f 43/5/2 15/6/2 7/7/2 40/8/2
f 31/9/3 14/10/3 6/11/3 20/12/3
f 56/13/4 40/8/4 7/7/4 22/14/4
f 27/15/5 16/16/5 8/17/5 24/18/5
f 52/19/6 34/20/6 4/21/6 23/22/6
f 22/23/5 7/24/5 15/25/5 25/26/5
f 25/26/5 15/25/5 16/16/5 27/15/5
f 18/27/3 5/28/3 13/29/3 29/30/3
f 29/30/3 13/29/3 14/10/3 31/9/3
f 38/31/2 8/17/2 16/32/2 41/33/2
f 41/33/2 16/32/2 15/6/2 43/5/2
f 34/34/1 46/35/1 12/36/1 4/37/1
f 46/35/1 48/1/1 11/4/1 12/36/1
f 9/38/3 30/39/3 32/40/3 10/41/3
f 27/15/7 28/42/7 60/43/7 59/44/7
f 1/45/3 17/46/3 30/39/3 9/38/3
f 17/46/3 18/27/3 29/30/3 30/39/3
f 11/47/5 26/48/5 28/42/5 12/49/5
f 55/50/8 56/13/8 80/51/8 79/52/8
f 3/53/5 21/54/5 26/48/5 11/47/5
f 21/54/5 22/23/5 25/26/5 26/48/5
f 38/31/6 50/55/6 24/18/6 8/17/6
f 50/55/6 52/19/6 23/22/6 24/18/6
f 12/49/5 28/42/5 23/22/5 4/21/5
f 28/42/5 27/15/5 24/18/5 23/22/5
f 36/2/4 54/56/4 21/57/4 3/3/4
f 54/56/4 56/13/4 22/14/4 21/57/4
f 10/41/3 32/40/3 19/58/3 2/59/3
f 32/40/3 31/9/3 20/12/3 19/58/3
f 19/60/4 20/61/4 55/50/4 53/62/4
f 47/63/9 48/1/9 72/64/9 71/65/9
f 2/66/4 19/60/4 53/62/4 35/67/4
f 35/67/4 53/62/4 54/56/4 36/2/4
f 18/27/6 17/46/6 51/68/6 49/69/6
f 41/33/10 43/5/10 67/70/10 65/71/10
f 5/28/6 18/27/6 49/69/6 37/72/6
f 37/72/6 49/69/6 50/55/6 38/31/6
f 9/73/1 10/74/1 47/63/1 45/75/1
f 29/30/11 31/9/11 63/76/11 61/77/11
f 1/78/1 9/73/1 45/75/1 33/79/1
f 33/79/1 45/75/1 46/35/1 34/34/1
f 13/80/2 42/81/2 44/82/2 14/83/2
f 52/19/12 50/55/12 74/84/12 76/85/12
f 5/28/2 37/72/2 42/81/2 13/80/2
f 37/72/2 38/31/2 41/33/2 42/81/2
f 17/46/6 1/45/6 33/86/6 51/68/6
f 51/68/6 33/86/6 34/20/6 52/19/6
f 20/61/4 6/87/4 39/88/4 55/50/4
f 55/50/4 39/88/4 40/8/4 56/13/4
f 14/83/2 44/82/2 39/88/2 6/87/2
f 44/82/2 43/5/2 40/8/2 39/88/2
f 10/74/1 2/66/1 35/67/1 47/63/1
f 47/63/1 35/67/1 36/2/1 48/1/1
f 62/89/3 61/77/3 63/76/3 64/90/3
f 58/91/5 57/92/5 59/44/5 60/43/5
f 77/93/4 79/52/4 80/51/4 78/94/4
f 73/95/6 75/96/6 76/85/6 74/84/6
f 69/97/1 71/65/1 72/64/1 70/98/1
f 66/99/2 65/71/2 67/70/2 68/100/2
f 42/81/13 41/33/13 65/71/13 66/99/13
f 53/62/14 55/50/14 79/52/14 77/93/14
f 50/55/15 49/69/15 73/95/15 74/84/15
f 45/75/16 47/63/16 71/65/16 69/97/16
f 56/13/17 54/56/17 78/94/17 80/51/17
f 28/42/18 26/48/18 58/91/18 60/43/18
f 30/39/19 29/30/19 61/77/19 62/89/19
f 48/1/20 46/35/20 70/98/20 72/64/20
f 43/5/21 44/82/21 68/100/21 67/70/21
f 25/26/22 27/15/22 59/44/22 57/92/22
f 51/68/23 52/19/23 76/85/23 75/96/23
f 31/9/24 32/40/24 64/90/24 63/76/24
f 46/35/25 45/75/25 69/97/25 70/98/25
f 49/69/26 51/68/26 75/96/26 73/95/26
f 54/56/27 53/62/27 77/93/27 78/94/27
f 32/40/28 30/39/28 62/89/28 64/90/28
f 44/82/29 42/81/29 66/99/29 68/100/29
f 26/48/30 25/26/30 57/92/30 58/91/30
