# Blender v2.78 (sub 0) OBJ File: ''
# www.blender.org
mtllib DISPLACEMENT.mtl
o Cube
v 1.000000 0.333333 1.000000
v -1.000000 -1.000000 1.000000
v 1.000000 1.000000 -0.999999
v -1.000000 1.000000 1.000000
v 1.000000 -1.000000 0.333333
v -1.000000 -1.000000 0.333333
v 1.000000 1.000000 -0.333333
v 1.000000 1.000000 0.333334
v -1.000000 1.000000 0.333333
v -1.000000 1.000000 -0.333333
v 0.333333 -1.000000 -1.000000
v -0.333333 -1.000000 1.000000
v 0.333334 1.000000 -1.000000
v -0.333333 1.000000 -1.000000
v 0.333333 1.000000 1.000000
v -0.333334 1.000000 1.000000
v -0.333333 1.000000 -0.333333
v -0.333334 1.000000 0.333333
v 0.333333 1.000000 0.333334
v 1.000000 -0.333333 -1.000000
v 1.000000 0.333333 -1.000000
v 1.000000 -0.333333 1.000000
v -1.000000 -0.333333 1.000000
v -1.000000 0.333333 1.000000
v -1.000000 -0.333333 -1.000000
v -1.000000 0.333333 -1.000000
v -1.000000 -0.333333 -0.333334
v 1.000000 -0.333333 -0.333333
v 1.000000 -0.333333 0.333334
v 0.333333 -0.333333 -1.000000
v 0.333333 -0.333333 1.000000
v -0.333334 0.333333 1.000000
v 1.000000 0.333333 0.333334
v 0.333333 0.333333 0.333334
v 0.333333 0.333333 1.000000
v -0.333333 -0.333333 -1.000000
v -0.333333 -0.333333 -0.333334
v -1.000000 -1.000000 -0.333334
v -0.333333 -1.000000 -0.333334
v -0.333333 -1.000000 -1.000000
v 1.000000 -1.000000 -0.333333
v 0.333333 -1.000000 -0.333333
v 0.333333 -0.333333 -0.333333
v -1.000000 0.333333 0.333334
v -0.333334 0.333333 0.333334
v -0.333334 -0.333333 1.000000
v -1.000000 -0.333333 0.333334
v -0.333334 -0.333333 0.333334
v -1.000000 0.333333 -0.333333
v -0.333333 0.333333 -0.333333
v -0.333333 0.333333 -1.000000
v 0.333333 -0.333333 0.333334
v 0.333333 -1.000000 0.333334
v 0.333333 -1.000000 1.000000
vt 0.7778 0.2222
vt 0.7778 0.3333
vt 0.6667 0.3333
vt 0.6667 0.2222
vt 0.2222 0.1111
vt 0.2222 0.0000
vt 0.3333 0.0000
vt 0.3333 0.1111
vt 0.1111 1.0000
vt 0.0000 1.0000
vt 0.0000 0.8889
vt 0.1111 0.8889
vt 0.0000 0.7778
vt 0.1111 0.7778
vt 0.8889 0.2222
vt 0.8889 0.3333
vt 0.2222 0.6667
vt 0.1111 0.6667
vt 0.1111 0.5556
vt 0.2222 0.5556
vt 0.3333 0.5556
vt 0.2222 0.4444
vt 0.3333 0.4444
vt 1.0000 0.1111
vt 1.0000 0.2222
vt 0.7778 0.1111
vt 0.7778 0.0000
vt 0.8889 0.0000
vt 1.0000 0.0000
vt 0.4444 0.2222
vt 0.3333 0.2222
vt 0.3333 0.1111
vt 0.4444 0.1111
vt 0.1111 0.1111
vt 0.1111 0.0000
vt 0.6667 0.1111
vt 0.0000 0.5556
vt 0.0000 0.4444
vt 0.0000 0.3333
vt 0.1111 0.3333
vt 0.2222 0.3333
vt 0.1111 0.3333
vt 0.1111 0.2222
vt 0.2222 0.2222
vt 0.2222 0.3333
vt 0.6667 0.4444
vt 0.6667 0.3333
vt 0.7778 0.3333
vt 0.7778 0.4444
vt 0.0000 0.2222
vt 0.0000 0.1111
vt 0.5556 0.1111
vt 0.6667 0.1111
vt 0.6667 0.2222
vt 0.6667 0.3333
vt 0.5556 0.3333
vt 0.4444 0.3333
vt 0.5556 0.3333
vt 0.5556 0.4444
vt 0.4444 0.4444
vt 0.4444 0.3333
vt 0.6667 0.4444
vt 0.6667 0.5556
vt 0.6667 0.6667
vt 0.5556 0.6667
vt 0.4444 0.6667
vt 0.4444 0.5556
vt 0.3333 0.8889
vt 0.2222 0.8889
vt 0.2222 0.7778
vt 0.3333 0.7778
vt 0.3333 1.0000
vt 0.2222 1.0000
vt 0.4444 0.0000
vt 0.5556 0.0000
vt 0.1111 0.6667
vt 0.2222 0.6667
vt 0.3333 0.2222
vt 0.3333 0.3333
vt 0.3333 0.5556
vt 0.3333 0.4444
vt 0.8889 0.5556
vt 0.7778 0.5556
vt 0.7778 0.4444
vt 0.8889 0.4444
vt 0.5556 0.7778
vt 0.4444 0.7778
vt 0.4444 0.6667
vt 0.5556 0.6667
vt 0.3333 0.7778
vt 0.3333 0.6667
vt 0.7778 0.8889
vt 0.7778 0.7778
vt 0.8889 0.7778
vt 0.8889 0.8889
vt 0.7778 0.6667
vt 0.8889 0.6667
vt 0.8889 0.7778
vt 0.7778 0.7778
vt 0.4444 0.8889
vt 0.4444 0.7778
vt 0.5556 0.7778
vt 0.5556 0.8889
vt 0.7778 0.5556
vt 0.6667 0.5556
vt 0.6667 0.4444
vt 0.7778 0.4444
vt 0.7778 0.3333
vt 0.8889 0.3333
vt 0.8889 0.4444
vt 0.7778 0.4444
vt 0.7778 0.5556
vt 0.7778 0.6667
vt 0.6667 0.6667
vt 1.0000 0.3333
vt 1.0000 0.4444
vt 0.8889 0.4444
vt 0.8889 0.3333
vt 0.4444 1.0000
vt 0.3333 1.0000
vt 0.3333 0.8889
vt 0.4444 0.8889
vt 0.5556 0.8889
vt 0.5556 1.0000
vt 0.5556 0.7778
vt 0.6667 0.7778
vt 0.6667 0.8889
vt 0.3333 0.8889
vt 0.3333 0.7778
vt 0.4444 0.7778
vt 0.4444 0.8889
vt 0.7778 0.6667
vt 0.7778 0.7778
vt 0.6667 0.7778
vt 0.6667 0.6667
vt 0.7778 0.6667
vt 0.7778 0.5556
vt 0.8889 0.5556
vt 0.8889 0.6667
vt 0.6667 0.7778
vt 0.7778 0.7778
vt 0.7778 0.8889
vt 0.6667 0.8889
vt 0.5556 0.7778
vt 0.5556 0.6667
vt 0.6667 0.6667
vn 0.0000 1.0000 0.0000
vn -0.0000 0.0000 1.0000
vn -1.0000 0.0000 -0.0000
vn 0.0000 -1.0000 0.0000
vn 0.0000 0.0000 -1.0000
vn 1.0000 0.0000 0.0000
usemtl Material
s off
f 18/1/1 9/2/1 4/3/1 16/4/1
f 32/5/2 16/6/2 4/7/2 24/8/2
f 24/9/3 4/10/3 9/11/3 44/12/3
f 44/12/3 9/11/3 10/13/3 49/14/3
f 17/15/1 10/16/1 9/2/1 18/1/1
f 41/17/4 5/18/4 53/19/4 42/20/4
f 11/21/4 42/20/4 39/22/4 40/23/4
f 13/24/1 14/25/1 17/15/1 18/1/1 19/26/1 8/27/1 7/28/1 3/29/1
f 30/30/5 11/31/5 40/32/5 36/33/5
f 35/34/2 15/35/2 16/6/2 32/5/2
f 19/26/1 18/1/1 16/4/1 15/36/1
f 53/19/4 54/37/4 12/38/4 2/39/4 6/40/4 38/41/4 39/22/4 42/20/4
f 54/42/2 31/43/2 46/44/2 12/45/2
f 31/43/2 35/34/2 32/5/2 46/44/2
f 5/46/2 29/47/2 52/48/2 53/49/2
f 22/50/2 1/51/2 35/34/2 31/43/2
f 30/30/5 36/33/5 51/52/5 14/53/5 13/54/5 3/55/5 21/56/5 20/57/5
f 41/58/6 28/59/6 29/60/6 5/61/6
f 20/62/6 21/63/6 3/64/6 7/65/6 8/66/6 33/67/6 29/60/6 28/59/6
f 6/68/3 47/69/3 27/70/3 38/71/3
f 47/69/3 44/12/3 49/14/3 27/70/3
f 2/72/3 23/73/3 47/69/3 6/68/3
f 51/52/5 36/33/5 25/74/5 26/75/5
f 27/70/3 49/14/3 26/76/3 25/77/3
f 12/45/2 46/44/2 23/78/2 2/79/2
f 29/60/6 33/67/6 1/80/6 22/81/6
f 1/82/1 33/83/1 34/84/1 35/85/1
f 8/86/2 19/87/2 34/88/2 33/89/2
f 19/87/6 15/90/6 35/91/6 34/88/6
f 27/92/4 25/93/4 36/94/4 37/95/4
f 27/96/5 37/97/5 39/98/5 38/99/5
f 37/100/3 36/101/3 40/102/3 39/103/3
f 11/104/6 30/105/6 43/106/6 42/107/6
f 28/108/5 41/109/5 42/110/5 43/111/5
f 30/105/4 20/112/4 28/113/4 43/114/4
f 23/115/1 46/116/1 48/117/1 47/118/1
f 32/119/4 24/120/4 44/121/4 45/122/4
f 32/119/3 45/122/3 48/123/3 46/124/3
f 45/125/2 44/126/2 47/127/2 48/123/2
f 26/128/1 49/129/1 50/130/1 51/131/1
f 10/132/5 17/133/5 50/134/5 49/135/5
f 17/136/3 14/137/3 51/138/3 50/139/3
f 52/140/4 29/141/4 22/142/4 31/143/4
f 52/140/6 31/144/6 54/145/6 53/146/6
